<svg width="40" height="40" viewBox="0 0 40 40" fill="none" xmlns="http://www.w3.org/2000/svg">
<path fill-rule="evenodd" clip-rule="evenodd" d="M31.1023 1.75291C29.9106 0.597583 28.4409 0 26.6534 0H13.2671C11.4796 0 9.97021 0.597583 8.81827 1.75291L1.70804 8.84423C0.595829 9.95972 0 11.4338 0 13.0672V26.7319C0 28.6043 0.635551 30.0784 1.90665 31.3134L8.65938 38.086C9.97021 39.4007 11.4796 40.0381 13.3863 39.9982H26.6137C28.4409 39.9982 29.9503 39.4405 31.3406 38.086L38.0933 31.3134C39.3247 30.0784 40 28.6043 40 26.7319V13.0672C40 11.4338 39.4042 9.95972 38.292 8.84423L31.1023 1.75291ZM37.2989 17.7283C37.2989 18.1665 37.1003 18.4056 36.6634 18.4056H34.6375V16.9714C34.6375 15.8957 34.4786 15.3778 33.565 15.3778H32.6514C31.7378 15.3778 31.5789 15.9356 31.5789 16.9714V18.4056H30.1887C29.1162 18.4056 28.5998 18.5649 28.5998 19.4812V20.4373C28.5998 21.3536 29.1559 21.513 30.1887 21.513H31.6187V22.9472C31.6187 24.0228 31.7776 24.5408 32.6912 24.5408H33.6048C34.5184 24.5408 34.6773 23.983 34.6773 22.9472V21.513H36.7031C37.1003 21.513 37.2989 21.7122 37.3386 22.1106V26.7319C37.3386 27.8474 37.0209 28.684 36.2264 29.4409L29.4737 36.2135C28.6792 37.0103 27.8054 37.3689 26.7329 37.3689H13.2274C12.1549 37.3689 11.281 37.0103 10.4866 36.2135L3.73386 29.4409C2.93942 28.6442 2.58193 27.8474 2.62165 26.7319V13.3859C2.62165 12.2704 2.97915 11.3142 3.81331 10.4776L10.6455 3.50582C11.3208 2.82856 12.2344 2.58953 13.2274 2.58953H26.6931C27.6862 2.58953 28.5601 2.78872 29.2751 3.50582L36.147 10.4776C36.9414 11.3142 37.3386 12.2704 37.3386 13.3859V17.7283H37.2989ZM12.275 10.8359H9.53419C8.4617 10.8359 7.94531 11.0351 7.94531 11.9116V12.9075C7.94531 13.784 8.50142 13.9832 9.53419 13.9832H10.1697C10.567 13.9832 10.7258 14.1824 10.7258 14.8198V27.8869C10.7258 28.9626 10.9245 29.4805 11.7983 29.4805H12.8311C13.705 29.4805 13.9036 28.9228 13.9036 27.8869V11.9116C13.8639 11.0351 13.3078 10.8359 12.275 10.8359ZM27.0896 16.2532C27.0896 17.289 27.0896 18.5639 25.3815 19.7989C27.4074 20.5956 27.5662 22.3087 27.4868 24.5795C27.4868 27.926 26.3349 29.5992 21.7668 29.6789C17.2385 29.5992 16.0469 27.926 16.0469 24.5795C16.0469 22.3087 16.2058 20.5956 18.2316 19.7989C16.5633 18.5639 16.5235 17.289 16.5235 16.2532V15.2174C16.7221 11.7912 17.8344 10.4766 21.8066 10.4766C25.7788 10.4766 26.891 11.7912 27.0896 15.2174V16.2532ZM24.1899 15.9345C24.1899 13.9027 23.5146 13.3051 21.8463 13.3051C20.178 13.3051 19.5027 13.9027 19.5027 15.9345C19.5027 17.8866 20.178 18.5639 21.8463 18.5639C23.5146 18.5639 24.1899 17.8866 24.1899 15.9345ZM19.2246 24.1811C19.2246 26.0934 19.8999 26.8503 21.8463 26.8503C23.7529 26.8503 24.4679 26.0934 24.4679 24.1811C24.4679 22.2689 23.7927 21.3924 21.8463 21.3924C19.8999 21.3924 19.2246 22.2689 19.2246 24.1811Z" fill="#CC0000"/>
</svg>
