<svg xmlns="http://www.w3.org/2000/svg" width="26" height="26" viewBox="0 0 26 26">
    <g fill="none" fill-rule="evenodd">
        <path fill="#FFF" fill-opacity="0" d="M0 26h26V0H0z"/>
        <path fill="#F3FFF8" d="M13 5.759c-4.674 0-8.463 2.878-8.463 6.427 0 1.6.776 3.063 2.053 4.188l-.797 3.29a.539.539 0 0 0 .808.503l3.547-1.937c.893.243 1.85.382 2.852.382 4.674 0 8.463-2.877 8.463-6.426 0-3.55-3.79-6.427-8.463-6.427"/>
        <path stroke="#52CE7F" stroke-linecap="round" stroke-linejoin="round" d="M13 5.759c-4.674 0-8.463 2.878-8.463 6.427 0 1.6.776 3.063 2.053 4.188l-.797 3.29a.539.539 0 0 0 .808.503l3.547-1.937c.893.243 1.85.382 2.852.382 4.674 0 8.463-2.877 8.463-6.426 0-3.55-3.79-6.427-8.463-6.427z"/>
    </g>
</svg>
