<svg width="14" height="13" viewBox="0 0 14 13" fill="none" xmlns="http://www.w3.org/2000/svg">
  <path fill-rule="evenodd" clip-rule="evenodd" d="M6.17484 0.297994L0.137854 5.31219C-0.135571 5.53929 0.025013 5.98398 0.380452 5.98398H1.57582V12.5851C1.57582 12.7944 1.74545 12.964 1.9547 12.964H4.86701C5.07628 12.964 5.24591 12.7944 5.24591 12.5851V8.85594C5.24591 8.64624 5.41591 8.47626 5.6256 8.47626H8.3744C8.58409 8.47626 8.75409 8.64624 8.75409 8.85594V12.5851C8.75409 12.7944 8.92372 12.964 9.13299 12.964H12.0453C12.2545 12.964 12.4242 12.7944 12.4242 12.5851V5.98398H13.6195C13.975 5.98398 14.1356 5.53929 13.8621 5.31219L7.82516 0.297994C7.3468 -0.0993314 6.6532 -0.0993314 6.17484 0.297994Z" fill="white"/>
</svg>
