<svg xmlns="http://www.w3.org/2000/svg" width="85" height="18" fill="none" viewBox="0 0 85 18"><path fill="#fff" fill-rule="evenodd" d="M2.374 3.366v13.348c0 .341-.125.668-.348.91a1.143 1.143 0 0 1-.839.376c-.315 0-.617-.136-.84-.377A1.342 1.342 0 0 1 0 16.714V1.286C0 1.066.052.85.15.66.25.468.39.307.563.192A1.111 1.111 0 0 1 1.718.135L15.963 7.85c.197.107.363.271.479.474.116.203.177.437.177.676 0 .239-.061.473-.177.676a1.227 1.227 0 0 1-.48.474L6.23 15.42a1.11 1.11 0 0 1-1.155-.056 1.247 1.247 0 0 1-.413-.467 1.37 1.37 0 0 1-.15-.626V9c0-.341.125-.668.348-.91.222-.24.524-.376.84-.376.314 0 .616.135.838.377.223.24.348.568.348.909v3.191L12.778 9 2.374 3.366ZM28.541 5.35c.289.207.514.501.648.847.092.234.14.486.14.74V8.42c0 .25-.046.499-.134.73a1.923 1.923 0 0 1-.381.618 1.756 1.756 0 0 1-.572.414 1.642 1.642 0 0 1-.673.144h-4.106v1.853c0 .21-.078.413-.215.562a.706.706 0 0 1-.518.232.706.706 0 0 1-.519-.232.829.829 0 0 1-.215-.562V5.825c0-.21.078-.412.215-.561a.706.706 0 0 1 .519-.233h4.839c.346 0 .684.11.972.318Zm-.702 3.194a.332.332 0 0 0 .023-.124V6.937a.34.34 0 0 0-.076-.214.297.297 0 0 0-.103-.08.274.274 0 0 0-.114-.024h-4.106v2.117h4.106a.271.271 0 0 0 .163-.053.319.319 0 0 0 .107-.14Zm36.448-.01a1.66 1.66 0 0 0-.984-.325H59a.266.266 0 0 1-.114-.025.306.306 0 0 1-.13-.116.335.335 0 0 1-.048-.177v-.953a.32.32 0 0 1 .13-.264A.283.283 0 0 1 59 6.62h5.084c.194 0 .38-.083.518-.232a.829.829 0 0 0 .215-.562.829.829 0 0 0-.215-.561.706.706 0 0 0-.518-.233H59c-.23 0-.46.049-.673.145a1.757 1.757 0 0 0-.571.413 1.923 1.923 0 0 0-.382.618c-.088.232-.134.48-.133.73v.953c0 .25.045.498.133.73.089.23.218.441.382.618.163.177.357.317.57.413.214.096.443.145.674.145h4.302c.039 0 .078.008.114.024.04.019.074.046.103.08a.327.327 0 0 1 .076.213v.954a.33.33 0 0 1-.13.263.27.27 0 0 1-.163.053h-5.084a.706.706 0 0 0-.518.233.83.83 0 0 0-.215.562c0 .21.077.412.215.561a.706.706 0 0 0 .518.233h5.084c.231 0 .46-.05.674-.145.213-.096.407-.236.57-.413.164-.177.294-.387.382-.619.088-.231.134-.479.134-.73v-.951c0-.312-.07-.62-.206-.895a1.859 1.859 0 0 0-.57-.685Zm-9.343-3.501a.699.699 0 0 1 .532.194.79.79 0 0 1 .174.246.844.844 0 0 1-.105.875l-3.24 4.01v1.82a.83.83 0 0 1-.215.562.706.706 0 0 1-.518.232.706.706 0 0 1-.519-.232.829.829 0 0 1-.215-.562v-1.82l-3.24-4.01a.811.811 0 0 1-.146-.269.856.856 0 0 1 .034-.61.79.79 0 0 1 .175-.248.721.721 0 0 1 .25-.156.68.68 0 0 1 .564.045.745.745 0 0 1 .226.192l2.87 3.552 2.87-3.552a.714.714 0 0 1 .503-.27Zm19.732 1.164a1.877 1.877 0 0 0-.649-.848 1.663 1.663 0 0 0-.973-.317h-4.302c-.231 0-.46.049-.674.145a1.756 1.756 0 0 0-.57.413 1.922 1.922 0 0 0-.382.618c-.088.232-.134.48-.134.73v4.13c0 .25.046.498.134.729.088.231.218.442.381.619.164.177.358.317.571.413.214.095.443.145.674.144h4.302c.23 0 .46-.049.673-.144a1.75 1.75 0 0 0 .571-.413 1.93 1.93 0 0 0 .382-.619c.088-.231.133-.48.133-.73v-4.13c0-.254-.046-.506-.137-.74Zm-1.33 4.87a.321.321 0 0 1-.096.235.272.272 0 0 1-.197.082h-4.301a.265.265 0 0 1-.114-.023.296.296 0 0 1-.103-.08.327.327 0 0 1-.076-.213v-4.13a.332.332 0 0 1 .13-.264.276.276 0 0 1 .163-.053h4.302a.27.27 0 0 1 .114.025.306.306 0 0 1 .166.198c.008.03.013.062.013.094v4.13Zm10.069-5.802a.706.706 0 0 1 .518-.233c.097 0 .192.02.281.06.089.04.17.099.238.173a.802.802 0 0 1 .159.257c.037.097.056.2.056.304v6.355a.843.843 0 0 1-.12.434.752.752 0 0 1-.32.292.683.683 0 0 1-.415.056.713.713 0 0 1-.376-.2L78.312 7.64v4.54c0 .21-.077.412-.215.56a.706.706 0 0 1-.518.233.706.706 0 0 1-.518-.232.829.829 0 0 1-.215-.562V5.825c0-.154.042-.305.12-.434a.751.751 0 0 1 .32-.292.682.682 0 0 1 .415-.056c.14.026.27.095.375.2l5.124 5.121V5.825c0-.21.078-.412.215-.561Zm-46.318 6.12h-4.4v-5.56a.829.829 0 0 0-.214-.561.706.706 0 0 0-.519-.233.706.706 0 0 0-.518.233.829.829 0 0 0-.215.561v6.353c0 .21.077.413.215.562a.706.706 0 0 0 .518.232h5.133a.706.706 0 0 0 .518-.232.829.829 0 0 0 .215-.562.829.829 0 0 0-.215-.561.706.706 0 0 0-.518-.233Zm9.608 1.483a.69.69 0 0 0 .733-.002.767.767 0 0 0 .268-.291.846.846 0 0 0-.003-.796l-3.421-6.353a.766.766 0 0 0-.268-.288.69.69 0 0 0-.73 0 .766.766 0 0 0-.269.288l-3.422 6.353a.852.852 0 0 0-.075.602.79.79 0 0 0 .34.484.685.685 0 0 0 .555.082.743.743 0 0 0 .447-.368l2.789-5.177 2.787 5.177c.065.12.157.22.269.289Z" clip-rule="evenodd"/></svg>