<svg xmlns="http://www.w3.org/2000/svg" width="60" height="27" fill="none" viewBox="0 0 60 27"><path fill="#fff" fill-rule="evenodd" d="M3.99 18.53S.092 20.024.043 21.672c.112.54.453 1.108 1.116 1.702 2.501 2.24 6.839 4.422 12.477 3.342 5.639-1.081 7.854-4.952 7.854-4.952-2.596 2.297-6.058 3.236-9.205 3.434-3.148.199-5.215-.555-6.052-1.755-.417-.597-.644-1.205-.645-1.87 0-.672.229-1.403.725-2.245.989-1.675 4.247-3.807 4.247-3.807l-6.572 3.01ZM3.727 1.803A14.223 14.223 0 0 0 1.16 3.627C.497 4.22.156 4.787.044 5.328c.05 1.648 3.945 3.14 3.945 3.14l6.565 3.008c-.154-.102-3.276-2.17-4.24-3.804-.496-.84-.725-1.572-.725-2.243 0-.667.227-1.274.644-1.872.838-1.2 2.905-1.953 6.052-1.755 3.147.199 6.61 1.138 9.206 3.435 0 0-2.215-3.87-7.854-4.952A15.448 15.448 0 0 0 10.693 0C7.945 0 5.597.763 3.727 1.803Z" clip-rule="evenodd"/><path fill="#fff" fill-rule="evenodd" d="M.043 5.326c-.03.14-.043.28-.043.416 0 1.324 1.288 2.481 2.37 3.485 1.578 1.466 2.289 2.922 2.29 4.232a4.144 4.144 0 0 1 0 .077c-.001 1.31-.712 2.766-2.29 4.232C1.287 18.772 0 19.929 0 21.253c0 .136.014.275.043.415.049-1.648 3.945-3.14 3.945-3.14l6.572-3.011s1.866-.982 1.866-1.953a.734.734 0 0 0-.003-.067.712.712 0 0 0 .003-.066c0-.971-1.867-1.953-1.867-1.953l-.006-.004-6.565-3.008S.094 6.974.043 5.326Zm45.15 6.266c.248-.1.662-.15 1.244-.15.283 0 .525.048.727.142.203.095.35.203.44.325.091.121.16.26.209.417.047.156.074.273.08.35.004.077.004.143 0 .197v2.713c-.759.1-1.138-.132-1.138-.693v-.82c.005-.74-.03-1.19-.106-1.352-.076-.162-.313-.247-.713-.257-.247 0-.495.044-.743.134v2.295c.01.298-.084.493-.284.585-.2.092-.484.128-.853.108V9.773a.708.708 0 0 0 .36.116c.15.012.276.019.38.019.103 0 .195.053.276.16.08.107.121.282.121.525v.999ZM23.72 12.877v2.712c-.177.01-.329.009-.455-.003a1.335 1.335 0 0 1-.36-.086.461.461 0 0 1-.25-.22.768.768 0 0 1-.072-.384V12.9c-.076-.362-.42-.507-1.031-.432-.319.04-.503.07-.554.09.015.084.023.183.023.297v2.042a.743.743 0 0 1-.076.384.48.48 0 0 1-.25.22 1.29 1.29 0 0 1-.356.086 3.034 3.034 0 0 1-.455.003v-3.63c0-.323.528-.497 1.584-.522 1.496-.04 2.247.44 2.252 1.439Zm-7.641.497c.086-.06.226-.1.42-.12.195-.02.377-.03.546-.033.17-.002.32-.037.451-.104a.32.32 0 0 0 .19-.317c0-.13-.104-.236-.311-.32a1.125 1.125 0 0 0-.841-.03c-.38.134-.531.442-.455.924Zm.038.783c0 .154.079.27.235.346.157.077.355.117.595.12.24.002.475-.008.705-.03.23-.023.448-.049.652-.079a4.41 4.41 0 0 1 .353-.044c.02.432-.067.737-.262.916-.194.18-.585.269-1.17.269-.81 0-1.403-.162-1.782-.485-.38-.323-.569-.881-.569-1.676 0-.398.052-.735.155-1.01a1.33 1.33 0 0 1 .455-.63c.2-.144.422-.246.667-.305.245-.06.532-.09.86-.09.627 0 1.089.13 1.384.391.296.261.444.677.444 1.249 0 .218-.043.393-.13.525a.624.624 0 0 1-.336.264 2.47 2.47 0 0 1-.5.097c-.195.02-.387.027-.577.019a4.078 4.078 0 0 0-.614.026c-.22.025-.408.067-.565.127Zm11.572-1.646v1.058c.005.656.005.983 0 .983h-.008l-.132.03a2.866 2.866 0 0 1-.591.041 1.712 1.712 0 0 1-.35-.067.874.874 0 0 1-.325-.167.857.857 0 0 1-.224-.32 1.222 1.222 0 0 1-.09-.493c0-.198.024-.371.075-.518a.897.897 0 0 1 .197-.342 1.035 1.035 0 0 1 .61-.287 2.428 2.428 0 0 1 .622.03c.078.014.15.032.216.052Zm.284-2.563a.614.614 0 0 1-.284-.105v1.811c-.167-.119-.445-.179-.834-.179-.202 0-.397.02-.584.06a2.04 2.04 0 0 0-.553.209c-.182.1-.34.223-.474.372-.134.15-.241.342-.322.578a2.46 2.46 0 0 0-.121.801c0 .77.169 1.32.508 1.65.338.331.897.496 1.675.496.248 0 .47-.012.667-.037.197-.025.354-.052.47-.082.116-.03.223-.07.319-.123.096-.052.161-.094.197-.127.035-.032.074-.074.117-.126.043-.053.067-.081.072-.086v-4.397c0-.199-.024-.35-.072-.454-.048-.105-.115-.17-.2-.198a.886.886 0 0 0-.27-.04c-.093 0-.197-.008-.31-.023Zm3.124 4.059a2.444 2.444 0 0 1-.065-.414v-.06a2.784 2.784 0 0 1-.004-.245 1.22 1.22 0 0 1 .057-.272.725.725 0 0 1 .152-.283.814.814 0 0 1 .31-.19c.142-.055.314-.082.516-.082.111 0 .214.01.307.03a1 1 0 0 1 .239.078.737.737 0 0 1 .178.123.702.702 0 0 1 .212.313c.023.064.04.12.053.167a.959.959 0 0 1 .027.168c.005.065.008.113.008.145v.198c0 .06-.003.114-.008.164s-.025.124-.06.223a.778.778 0 0 1-.145.254.772.772 0 0 1-.28.186 1.14 1.14 0 0 1-.455.082c-.227 0-.414-.022-.561-.067a.616.616 0 0 1-.33-.216.912.912 0 0 1-.151-.302Zm-1.208-.602c.003.05.007.09.012.12.015.193.034.36.056.502.023.142.057.29.103.444.045.154.103.283.174.387.07.105.163.207.277.306.114.1.246.178.398.235.151.057.336.103.553.138.218.034.465.052.743.052.268 0 .51-.03.724-.09.215-.06.39-.133.523-.22a1.38 1.38 0 0 0 .349-.324c.099-.129.17-.248.216-.357.046-.11.08-.234.106-.373.025-.139.04-.24.046-.306.005-.064.007-.136.007-.216l.004-.152a3.406 3.406 0 0 0-.019-.492 1.612 1.612 0 0 0-.053-.306 3.418 3.418 0 0 0-.11-.31 1.191 1.191 0 0 0-.178-.308 1.919 1.919 0 0 0-.27-.265 1.532 1.532 0 0 0-.37-.223 2.313 2.313 0 0 0-.497-.142 3.546 3.546 0 0 0-.63-.052c-.323 0-.611.038-.864.115a1.902 1.902 0 0 0-.602.287c-.15.115-.274.251-.376.41a1.838 1.838 0 0 0-.299.85 2.07 2.07 0 0 0-.023.29Zm8.15-1.795a.644.644 0 0 1-.005-.157h-1.326c-.197 0-.376.025-.535.075-.159.05-.29.112-.39.186a1.153 1.153 0 0 0-.258.26 1.314 1.314 0 0 0-.235.564 2.022 2.022 0 0 0-.03.339v1.997c0 .184.04.324.121.42a.47.47 0 0 0 .277.176c.103.02.23.048.379.086.149.037.269.088.36.153v-2.385c0-.189.015-.338.045-.447a.428.428 0 0 1 .182-.254.727.727 0 0 1 .311-.111c.116-.015.28-.023.493-.023a.66.66 0 0 0 .36-.09.424.424 0 0 0 .186-.238 1.404 1.404 0 0 0 .064-.551Zm2.06 1.9v1.059c.081.025.169.044.262.06.094.014.211.027.353.037.141.01.273-.005.394-.045s.237-.097.349-.171a.75.75 0 0 0 .265-.358c.066-.164.099-.36.099-.589 0-.189-.032-.353-.095-.492a.95.95 0 0 0-.22-.32.805.805 0 0 0-.33-.168 1.95 1.95 0 0 0-.341-.067 1.853 1.853 0 0 0-.341.011 1.982 1.982 0 0 0-.387.06H40.1c-.005 0-.005.328 0 .984Zm-.002 3.729a.716.716 0 0 0-.36-.116 4.65 4.65 0 0 0-.38-.018c-.103 0-.195-.054-.276-.16-.081-.107-.121-.282-.121-.526v-4.397a2.93 2.93 0 0 0 .072-.085.946.946 0 0 1 .117-.123 1.481 1.481 0 0 1 .515-.254c.117-.03.274-.057.47-.082a5.57 5.57 0 0 1 .668-.037c.778 0 1.336.165 1.675.496.339.33.508.88.508 1.65 0 .373-.06.696-.182.97a1.498 1.498 0 0 1-.489.629 2.147 2.147 0 0 1-.652.32c-.23.067-.474.1-.731.1-.35 0-.627-.034-.834-.104v1.737Zm9.933-5.565c.08.107.121.282.121.525v2.698c.01.298-.085.493-.284.585-.2.092-.484.128-.853.108v-4.21a.714.714 0 0 0 .36.115c.149.012.275.019.379.019.104 0 .196.053.277.16Zm-.869-.648a.587.587 0 0 1-.174-.424.57.57 0 0 1 .178-.421.59.59 0 0 1 .428-.176.59.59 0 0 1 .428.175.57.57 0 0 1 .179.422.57.57 0 0 1-.178.42.59.59 0 0 1-.429.176.608.608 0 0 1-.432-.172Zm5.949 4.56v-2.713c-.005-.999-.756-1.478-2.252-1.439-1.056.025-1.584.2-1.584.522v3.63c.177.01.328.008.455-.004.126-.013.245-.041.356-.086a.48.48 0 0 0 .25-.22.743.743 0 0 0 .076-.384V12.85c0-.114-.008-.213-.023-.298.05-.02.235-.05.554-.09.611-.074.955.07 1.03.433v1.998a.768.768 0 0 0 .073.383.461.461 0 0 0 .25.22c.114.045.234.073.36.086.126.012.278.013.455.003Zm3.788-1.97a.87.87 0 0 1-.088.09c-.037.034-.122.08-.253.137a1.016 1.016 0 0 1-.41.086c-.248 0-.449.03-.603.09-.154.059-.23.143-.23.252 0 .13.055.227.166.291.111.065.334.097.667.097.137 0 .241-.001.315-.004a.45.45 0 0 0 .204-.056.485.485 0 0 0 .133-.097.451.451 0 0 0 .064-.19c.018-.096.028-.19.03-.279a16.5 16.5 0 0 0 .005-.417Zm-2.407-1.124a.744.744 0 0 1-.011-.205.987.987 0 0 1 .099-.425.638.638 0 0 1 .409-.353c.109-.04.236-.06.383-.06h.212c.132-.005.267-.005.406 0s.278.011.417.019c.139.007.274.028.405.063.132.035.257.077.375.127.12.05.228.12.326.212.099.092.185.198.258.317.073.119.13.266.17.44.041.173.061.37.061.588v.82c0 .204-.022.389-.068.555a1.433 1.433 0 0 1-.17.406 1.149 1.149 0 0 1-.254.276c-.102.08-.196.138-.285.175a1.58 1.58 0 0 1-.307.09 2.6 2.6 0 0 1-.269.04 2.887 2.887 0 0 1-.223.008h-1.047a.853.853 0 0 1-.068-.004 3.074 3.074 0 0 1-.17-.022 1.234 1.234 0 0 1-.731-.38.98.98 0 0 1-.168-.302 1.206 1.206 0 0 1-.068-.417c0-.274.035-.503.106-.69a.907.907 0 0 1 .322-.432 1.33 1.33 0 0 1 .482-.212c.177-.04.391-.06.644-.06.44 0 .74-.028.898-.086.16-.057.24-.145.24-.264 0-.169-.166-.283-.497-.343a3.885 3.885 0 0 0-1.054-.037c-.372.035-.646.087-.823.156Z" clip-rule="evenodd"/></svg>