<svg xmlns="http://www.w3.org/2000/svg" width="75" height="22" fill="none" viewBox="0 0 75 22"><path fill="#fff" fill-rule="evenodd" d="M37.485 20.982c5.79-.01 10.49-4.71 10.5-10.5A10.441 10.441 0 0 0 37.52.017c-5.79.01-10.49 4.71-10.5 10.5a10.44 10.44 0 0 0 10.465 10.465Zm.059-19.159.007-.01v.022l5.313 8.81.004.002-5.35 3.161v-.003l-.007.004-.028-.027-5.3-3.115 5.35-8.827.007-.022.004.005Zm-.02 12.997-5.334-3.133 5.307 7.47.01.027.004-.008.003.005v-.009l5.357-7.509-5.347 3.157Zm-27.042 6.204C16.28 21.014 20.99 16.305 21 10.506A10.457 10.457 0 0 0 10.518.024C4.72.034.01 4.743 0 10.542a10.457 10.457 0 0 0 10.482 10.482Zm-.022-9.244a20.36 20.36 0 0 0 1.3-.03l-.002-.001c2.598-.12 4.536-.576 4.537-1.117.001-.542-1.937-.991-4.534-1.103l-.002 1.77c-.073.007-.478.04-1.286.042a19.857 19.857 0 0 1-1.331-.038l.003-1.77c-2.603.12-4.546.576-4.547 1.119-.001.542 1.94.992 4.543 1.102.168.007.646.027 1.32.026Zm1.304-2.434Zm.003-1.584-.003 1.584c2.94.13 5.149.71 5.147 1.408 0 .699-2.213 1.285-5.152 1.426l-.009 5.077-2.62.005.01-5.076c-2.946-.13-5.16-.71-5.159-1.41.002-.698 2.218-1.286 5.163-1.426l.003-1.583-3.624.006.005-2.415 9.868-.017-.005 2.415-3.624.006Zm42.548.2C55.719 2.334 61.416-1.085 67.04.314c5.624 1.404 9.048 7.1 7.644 12.725-1.4 5.628-7.101 9.051-12.726 7.647-5.624-1.404-9.048-7.1-7.644-12.724Zm13.341 2.735c.753-.177 1.32-.671 1.473-1.693.21-1.396-.853-2.148-2.314-2.655l.471-1.891-1.15-.286-.46 1.843a34.07 34.07 0 0 0-.92-.217l.462-1.855-1.15-.286-.471 1.891c-.25-.056-.5-.112-.736-.173v-.004l-1.59-.398-.306 1.23s.853.198.837.21c.467.117.551.427.535.672l-.539 2.156c.032.008.077.024.121.04l-.12-.032-.753 3.021c-.056.141-.201.354-.527.274.012.016-.837-.21-.837-.21l-.571 1.32 1.5.374.218.057.603.157-.479 1.914 1.151.286.47-1.895c.235.063.464.122.689.179l.23.059-.472 1.886 1.151.286.479-1.91c1.963.373 3.44.224 4.064-1.554.502-1.432-.025-2.257-1.059-2.796Zm-3.212-3.536-.575 2.301.197.051c.788.21 2.487.662 2.784-.53.309-1.221-1.364-1.59-2.174-1.77a7.245 7.245 0 0 1-.231-.052Zm-.867 3.458-.632 2.534.226.059c.94.248 2.994.789 3.319-.521.336-1.335-1.647-1.784-2.622-2.004a13.54 13.54 0 0 1-.291-.068Z" clip-rule="evenodd"/></svg>