<svg xmlns="http://www.w3.org/2000/svg" width="84" height="39" fill="none" viewBox="0 0 84 39"><path fill="#fff" fill-rule="evenodd" d="M63.087 12.343a13.249 13.249 0 0 1 6.553-1.997c-.264-.865-1.196-4.506.498-8.04-3.197 2.435-2.636 6.16-2.636 6.16S65.49 3.215 62.886 0c-.35 4.132.931 9.61.931 9.61s-1.63-3.396-5.632-3.588c3.324 1.932 4.616 5.392 4.902 6.32Zm-5.98 12.984c0-7.484 6.013-13.56 13.445-13.56 7.422 0 13.447 6.065 13.447 13.56 0 7.485-6.014 13.56-13.447 13.56-7.422 0-13.446-6.064-13.446-13.56Zm1.407 0c0 6.705 5.39 12.14 12.038 12.14 6.639 0 12.028-5.434 12.038-12.14 0-6.705-5.389-12.14-12.038-12.14s-12.038 5.435-12.038 12.14ZM72.306 15.15c-4.172.256-2.298 5.744 2.319 5.456 4.51-.288 2.128-5.733-2.32-5.456ZM51.33 23.52a2.11 2.11 0 0 1 1.154-.32c.54 0 .995.127 1.377.384.37.256.645.608.815 1.046h1.238c-.2-.78-.603-1.399-1.196-1.858-.593-.459-1.323-.683-2.223-.683-.688 0-1.292.16-1.821.48-.53.32-.932.758-1.218 1.324-.286.566-.434 1.207-.434 1.933s.148 1.366.434 1.932a3.162 3.162 0 0 0 1.218 1.314c.529.31 1.133.47 1.82.47.89 0 1.631-.225 2.224-.684.593-.448.985-1.068 1.196-1.847h-1.238c-.17.438-.445.78-.816 1.036-.37.256-.825.384-1.376.384a2.11 2.11 0 0 1-1.154-.32c-.339-.214-.603-.524-.805-.919a3.135 3.135 0 0 1-.296-1.377c0-.534.095-.993.296-1.388.191-.384.456-.694.805-.907Zm-26.848 2.872h-2.647v-.865h3.642v1.132a3.584 3.584 0 0 1-.572 1.462c-.307.438-.698.78-1.185 1.047-.498.267-1.06.395-1.684.395-.71 0-1.334-.16-1.874-.48a3.26 3.26 0 0 1-1.25-1.325c-.296-.565-.444-1.206-.444-1.932s.148-1.367.445-1.933a3.169 3.169 0 0 1 1.25-1.313c.54-.31 1.153-.47 1.863-.47.868 0 1.588.214 2.16.641.582.427.963 1.014 1.143 1.751h-1.228a1.967 1.967 0 0 0-.773-.94c-.36-.235-.784-.352-1.281-.352-.455 0-.858.107-1.218.32-.36.214-.646.513-.847.908-.2.395-.307.854-.307 1.388 0 .566.106 1.036.307 1.441.201.406.498.705.868.919a2.6 2.6 0 0 0 1.303.32c.593 0 1.111-.192 1.546-.566.434-.374.698-.897.783-1.548ZM0 22.176h2.467c.836 0 1.461.203 1.884.598.424.395.636.95.636 1.644s-.212 1.239-.646 1.634c-.434.395-1.059.598-1.874.598H1.175v2.84H0v-7.314Zm1.175 3.513H2.34c.963 0 1.45-.417 1.45-1.26 0-.417-.106-.737-.338-.95-.223-.225-.593-.331-1.102-.331H1.175v2.54Zm9.907-1.282c0 .577-.159 1.047-.476 1.41-.318.363-.773.598-1.366.715l1.895 2.968H9.822l-1.81-2.925h-.837V29.5H6v-7.313h2.552c.826 0 1.46.203 1.884.608.434.406.646.94.646 1.612ZM7.175 23.19v2.541h1.281c.943 0 1.42-.416 1.42-1.26 0-.405-.107-.715-.34-.94-.222-.223-.582-.34-1.069-.34H7.175Zm7.095-.898-2.668 7.196h1.25l.55-1.58h3.06l.55 1.58h1.25l-2.658-7.196H14.27Zm-.529 4.698 1.196-3.416 1.197 3.416H13.74Zm16.263 1.046-2.36-5.744h-1.42v7.196H27.4v-5.391l2.075 5.391h1.027l2.064-5.391v5.391h1.175v-7.196h-1.408l-2.329 5.744Zm4.605 1.452 2.669-7.196h1.334l2.657 7.196h-1.25l-.55-1.58h-3.06l-.55 1.58h-1.25Zm3.335-5.914-1.196 3.416h2.393l-1.197-3.416Zm3.136-.437h2.012v6.353h1.186v-6.353H46.3v-.961h-5.22v.96Zm5.849-.961h1.175v7.314h-1.175v-7.314Zm13.337 0h2.467c.825 0 1.46.203 1.884.598.424.395.635.95.635 1.644s-.211 1.239-.645 1.634c-.434.395-1.06.598-1.874.598H61.44v2.84h-1.175v-7.314Zm1.164 3.513h1.176c.963 0 1.45-.417 1.44-1.26 0-.417-.106-.737-.34-.95-.222-.225-.592-.331-1.1-.331H61.43v2.54Zm5.821-3.513h-1.164v7.314h3.673v-.918h-2.509v-6.396Zm3.013 7.313 2.668-7.197h1.334l2.657 7.196h-1.249l-.55-1.58h-3.06l-.55 1.58h-1.25Zm3.325-5.916-1.197 3.417h2.393l-1.197-3.416Zm6.708-1.397-1.662 3.385-1.663-3.385h-1.355l2.425 4.655v2.659h1.175v-2.66l2.414-4.655h-1.334Z" clip-rule="evenodd"/></svg>