<svg xmlns="http://www.w3.org/2000/svg" width="64" height="14" fill="none" viewBox="0 0 64 14"><path fill="#fff" fill-rule="evenodd" d="m28.768 7.141 1.7-2.14 1.992-2.524.465-.59L34.198.27c.251-.322.835-.36 1.287-.092.452.276.61.761.36 1.086l-1.287 1.632-.465.59-1.927 2.44-1.752 2.21c-.25.322-.834.36-1.286.092-.452-.276-.61-.762-.36-1.087Zm31.483-3.225 1.908 3.688 1.726 3.35c.251.482.075 1.075-.392 1.29-.468.216-1.064 0-1.315-.493L60.5 8.508l-1.97-3.784-.468-.904L56.8 1.374c-.251-.482-.075-1.075.392-1.29.468-.216 1.064 0 1.315.493l1.29 2.458.454.88Zm-59.3.007c.519 0 .95-.422.95-.929 0-.793.708-1.137 1.42-1.137h.05c.708 0 1.42.347 1.42 1.137 0 .507.431.929.95.929.52 0 .964-.422.964-.929C6.705 1.264 5.31 0 3.384 0h-.05C1.393 0 0 1.251 0 2.994a.94.94 0 0 0 .95.929Zm5.754 5.379c0-.495-.432-.906-.951-.906-.52 0-.95.4-.95.906 0 .774-.709 1.11-1.42 1.11h-.05c-.709 0-1.42-.34-1.42-1.11 0-.495-.431-.906-.95-.906-.52 0-.964.4-.964.906 0 1.688 1.394 2.921 3.32 2.921h.051c.252 0 .507-.024.734-.06l.837 1.557c.164.303.683.374 1.14.143.468-.227.708-.662.544-.965l-.812-1.557c.563-.518.89-1.23.89-2.04ZM1.829 3.934v4.45c-.232-.226-.545-.35-.909-.364-.364 0-.691.149-.92.375V3.912c.232.228.556.375.92.375s.68-.139.909-.353Zm3.049-.022v4.483c.23-.226.56-.375.926-.375.355 0 .67.135.902.352V3.934a1.33 1.33 0 0 1-1.828-.022Zm17.748-.918c0 .507-.433.929-.953.929a.94.94 0 0 1-.952-.929C20.72 1.264 22.118 0 24.048 0h.05c1.93 0 3.327 1.263 3.327 2.994 0 .507-.432.929-.952.929s-.953-.422-.953-.929c0-.79-.712-1.137-1.422-1.137h-.05c-.713 0-1.422.344-1.422 1.137Zm3.847 5.402c-.52 0-.953.421-.953.929 0 .793-.709 1.137-1.422 1.137h-.05c-.71 0-1.422-.347-1.422-1.137 0-.508-.433-.929-.953-.929s-.952.421-.952.929c0 1.73 1.397 2.994 3.327 2.994h.05c1.93 0 3.327-1.264 3.327-2.994a.94.94 0 0 0-.952-.929Zm-3.924-4.462v4.45a1.393 1.393 0 0 0-.908-.364 1.31 1.31 0 0 0-.92.375V3.912c.231.228.556.375.92.375s.68-.139.908-.353Zm14.974-.011c.52 0 .953-.422.953-.929 0-.793.71-1.137 1.422-1.137h.05c.71 0 1.423.347 1.423 1.137 0 .507.432.929.952.929s.953-.422.953-.929c0-1.73-1.397-2.994-3.327-2.994h-.05c-1.93 0-3.328 1.263-3.328 2.994 0 .507.432.929.953.929Zm-.34.363c.363.104.762.081 1.087-.103a1.1 1.1 0 0 0 .569-.813l3.83 4.652a1.468 1.468 0 0 0-1.062.115c-.337.188-.53.5-.582.836l-3.842-4.687Zm5.14 4.11c-.52 0-.952.421-.952.929 0 .793-.71 1.137-1.422 1.137h-.05c-.71 0-1.423-.347-1.423-1.137 0-.508-.432-.929-.952-.929s-.953.421-.953.929c0 1.73 1.397 2.994 3.327 2.994h.05c1.93 0 3.328-1.264 3.328-2.994a.942.942 0 0 0-.953-.929Zm-28.978.929c0-.508.431-.929.952-.929.533 0 .952.41.94.929 0 1.73-1.397 2.994-3.327 2.994h-.05c-1.93 0-3.328-1.264-3.328-2.994a.94.94 0 0 1 .953-.929c.52 0 .952.421.952.929 0 .777.725 1.137 1.435 1.137h.05c.713 0 1.422-.344 1.422-1.137ZM14.322 0a.91.91 0 0 0-.914.893v7.512c.23-.236.56-.393.926-.393.355 0 .67.142.902.37V.893A.901.901 0 0 0 14.323 0Zm-3.961 4.238v4.144a1.283 1.283 0 0 0-1.829.024V.892c0-.5.424-.893.92-.893.497 0 .909.405.909.893v3.346Zm8.533.048V.903A.916.916 0 0 0 17.98 0c-.5 0-.915.41-.915.903v10.522a.916.916 0 0 0 1.828 0V4.286Zm35.962-.89v8.029a.916.916 0 0 1-.914.903c-.5 0-.915-.41-.915-.903V.902a.916.916 0 0 1 1.829 0v2.492Zm3.658 2.412-.366-.715-.451-.88-1.012-1.967v9.208c0 .48.415.879.915.879s.914-.399.914-.879V5.808ZM64 7.771V.875C64 .396 63.586 0 63.086 0s-.914.397-.914.874v5.673l.342.663L64 10.086V7.772ZM34.81 9.173l-1.206-2.257-.288-.546-.411-.774-.35.487-.86 1.187.248.463 1.243 2.329 1.07 1.983c.161.298.672.369 1.12.142.461-.225.696-.652.535-.95l-1.1-2.064Zm-4.332-5.817v.775l-.46.642-1.369 1.951V.893c0-.488.424-.893.92-.893.497 0 .909.405.909.893v2.463Zm-1.586 5.248a1.982 1.982 0 0 1-.243-.208v3c0 .504.415.923.915.923s.914-.419.914-.923V8.531a1.102 1.102 0 0 1-.805.333 1.444 1.444 0 0 1-.781-.26ZM49.359 0l-.013.012c1.444.183 2.462 1.546 2.462 3.533v.06c0 1.993-1.018 3.476-2.45 3.656 0 .006.004.009.007.012.003.003.006.006.006.012h-3.416c-.464 0-.852-.35-.852-.93 0-.578.388-.928.852-.928h3.157c.67-.048.98-1.049.98-1.81v-.072c0-.758-.298-1.64-.98-1.687h-3.157c-.464 0-.852-.35-.852-.93 0-.577.388-.928.852-.928h3.404ZM46.92 7.595h-1.017c-.315 0-.592-.118-.8-.322v4.151c0 .488.413.892.909.892a.907.907 0 0 0 .908-.892V7.595Zm.012-3.265v.647h-1.029c-.327 0-.595.119-.8.315V1.93c.208.2.485.315.8.315h1.03V4.33Z" clip-rule="evenodd"/></svg>