<svg xmlns="http://www.w3.org/2000/svg" width="68" height="15" viewBox="0 0 68 15" fill="none">
<path d="M12.4374 6.18418C12.4374 9.52868 9.61629 12.1874 6.21796 12.1874C2.81964 12.1874 0 9.52868 0 6.18418C0 2.83967 2.82111 0.182373 6.21944 0.182373C9.61777 0.182373 12.4389 2.84112 12.4389 6.18563L12.4374 6.18418ZM2.88902 6.18418C2.88902 7.9407 4.38446 9.57953 6.21944 9.57953C8.05442 9.57953 9.54986 7.9407 9.54986 6.18418C9.54986 4.42766 8.05442 2.79027 6.21944 2.79027C4.38446 2.79027 2.88902 4.42911 2.88902 6.18418Z" fill="white"/>
<path d="M16.0214 4.33153H16.0553C16.7344 3.3276 17.601 3.02686 18.3317 3.02686C20.7276 3.02686 21.5263 4.53203 21.5263 6.6721V11.7891L18.875 12.0564V6.85662C18.875 5.85269 18.3479 5.36888 17.5493 5.36888C16.7506 5.36888 16.2236 5.85414 16.2236 6.85662V11.7891L13.5723 12.0564V3.29418L16.0184 3.02686V4.33153H16.0214Z" fill="white"/>
<path d="M25.9629 0V11.7886L23.3115 12.0559V0.267328L25.9629 0Z" fill="white"/>
<path d="M31.2453 8.14386L33.352 3.02686L35.9 3.66176L30.7523 15L27.9828 14.7326L29.8695 11.0031L26.5391 3.64578L29.121 3.02686L31.2453 8.14386Z" fill="white"/>
<path d="M38.7085 14.7326L36.0586 15V3.29418L38.5387 3.02686V4.59886H38.5726C39.048 3.62834 40.136 3.02686 41.224 3.02686C43.772 3.02686 45.5391 5.33401 45.5391 7.70946C45.5391 10.0849 43.4664 12.1916 41.0867 12.1916C40.2201 12.1916 39.2178 11.9736 38.7424 11.2051H38.7085V14.7341V14.7326ZM40.7309 9.84953C41.971 9.84953 42.8892 8.72937 42.8892 7.60921C42.8892 6.48904 41.971 5.36888 40.7309 5.36888C39.4909 5.36888 38.5726 6.48904 38.5726 7.60921C38.5726 8.72937 39.4894 9.84953 40.7309 9.84953Z" fill="white"/>
<path d="M49.5654 0V11.7886L46.9141 12.0559V0.267328L49.5654 0Z" fill="white"/>
<path d="M52.3524 3.41187C53.0314 3.17795 54.0176 3.02686 54.7483 3.02686C56.9228 3.02686 58.4183 3.91311 58.4183 6.0372V11.7891L56.1079 12.0564V11.2036H56.074C55.5647 11.9722 54.8 12.1901 53.8995 12.1901C51.9287 12.1901 50.8584 10.9188 50.8584 9.07951C50.8584 7.34043 52.3022 6.25368 53.9851 6.25368C54.6479 6.25368 55.3949 6.50503 55.9559 6.90602C55.9736 6.82175 55.9736 6.73894 55.9736 6.63869C55.9736 5.45169 55.4126 5.20035 54.2744 5.20035C53.4935 5.20035 52.6948 5.40084 51.9803 5.71902L52.3538 3.41187H52.3524ZM54.6465 10.1837C55.3595 10.1837 55.9544 9.76526 55.9544 9.04609C55.9544 8.32692 55.3595 7.92593 54.6465 7.92593C53.9334 7.92593 53.3208 8.34436 53.3208 9.04609C53.3208 9.74783 53.9157 10.1837 54.6465 10.1837Z" fill="white"/>
<path d="M63.3459 8.14386L65.4525 3.02686L68.0005 3.66176L62.8529 15L60.0834 14.7326L61.9701 11.0031L58.6396 3.64578L61.2216 3.02686L63.3459 8.14386Z" fill="white"/>
</svg>