<svg xmlns="http://www.w3.org/2000/svg" width="53" height="32" fill="none" viewBox="0 0 53 32"><path fill="#fff" fill-rule="evenodd" d="M39.523 19.767c2.406 0 4.19-1.498 4.19-3.77 0-2.198-1.318-3.625-3.52-3.625-1.016 0-1.855.365-2.488.99.151-1.295 1.228-2.243 2.418-2.243l2.34-.005 1.166-2.269s-2.59.06-3.795.06c-2.752.05-4.612 2.59-4.612 5.676 0 3.597 1.814 5.186 4.301 5.186Zm.015-5.384c.893 0 1.514.596 1.514 1.615 0 .916-.552 1.672-1.514 1.674-.92 0-1.538-.7-1.538-1.659 0-1.02.618-1.63 1.538-1.63ZM53 11.85v7.642h-2.688v-5.36h-2.585v5.36H45.04V11.85H53Zm-21.544 5.524c.948-.07 1.582-.442 1.582-.442l.995 1.872c-.636.415-1.682.685-2.439.714-2.708.05-4.593-1.623-4.593-4.063 0-2.41 2.003-4.123 4.593-4.123 1.026 0 1.908.278 2.57.789-.362.651-1.06 1.95-1.06 1.95s-.953-.507-1.674-.507c-1.177 0-2.034.693-2.034 1.904 0 1.24.97 1.94 2.06 1.906Z" clip-rule="evenodd"/><path fill="#fff" d="m0 6.803 3.726 6.767v4.125l-3.72 6.752L0 6.803Zm14.309 4.303 3.493-2.175 7.147-.008-10.64 6.621v-4.438Zm-.022-4.342.02 8.958-3.736-2.331V0l3.716 6.764Z"/><path fill="#fff" d="m24.945 8.926-7.147.008-3.51-2.17L10.57 0l14.374 8.926Zm-10.637 15.56V20.14l-3.737-2.287.003 13.404 3.734-6.77Z"/><path fill="#fff" d="M17.793 22.332 3.726 13.57 0 6.803 24.932 22.32l-7.14.01Zm-7.216 8.924 3.734-6.77 3.483-2.154 7.14-.008-14.357 8.932Z"/><path fill="#fff" d="m.006 24.447 10.599-6.595-3.565-2.221-3.313 2.063-3.721 6.753Z"/></svg>