<svg xmlns="http://www.w3.org/2000/svg" width="84" height="14" fill="none" viewBox="0 0 84 14"><path fill="#fff" fill-rule="evenodd" d="M25.203 0h4.466a1.21 1.21 0 0 0-.414.595 9.812 9.812 0 0 0-1.847.256c-.689.165-1.288.562-1.288 1.246 0 .221.062.43.167.613l-.006-.144.093-.044c.083-.042.172-.078.259-.114.222-.09.454-.164.686-.227 1.358-.37 3.36-.37 4.718 0a6.8 6.8 0 0 1 .686.227c.086.033.176.072.26.114l.092.044-.006.144c.105-.182.166-.392.166-.613 0-.684-.599-1.087-1.287-1.246a10.344 10.344 0 0 0-1.964-.26c.135-.167.345-.274.555-.379.133-.069.266-.134.386-.212h3.228c.438 0 .797.347.797.77v12.456c0 .424-.359.771-.797.771h-8.95a.786.786 0 0 1-.797-.77V.77c-.003-.424.355-.771.797-.771Zm5.142 6.065c1.133-.625 1.652-1.345 1.717-2.537-.46 1.458-1.133 2.163-1.717 2.537ZM26.522 4.2c.16 2.091 2.495 2.267 3.156 3.45.66-1.183 2.995-1.362 3.156-3.45l.074-1.542c-1.596-.804-4.86-.804-6.457 0l.07 1.542ZM12.998 0h8.95c.438 0 .796.347.796.77v12.456a.786.786 0 0 1-.796.771h-8.95a.786.786 0 0 1-.797-.77V.77c0-.424.358-.771.797-.771Zm5.191 9.581c1.134-.624 1.652-1.344 1.717-2.536-.46 1.458-1.133 2.163-1.717 2.536Zm-3.87-1.75c.161 2.09 2.496 2.27 3.157 3.45.66-1.183 2.996-1.362 3.156-3.45l.074-1.542c-1.596-.804-4.86-.804-6.457 0l.07 1.542Zm2.734-3.607a9.811 9.811 0 0 0-1.847.257c-.689.165-1.288.562-1.288 1.246 0 .221.062.43.167.613l-.006-.144.092-.044c.084-.042.173-.078.26-.114.222-.09.454-.164.686-.227 1.358-.37 3.36-.37 4.718 0a6.8 6.8 0 0 1 .686.227c.086.033.176.072.26.114l.092.044-.006.144c.105-.183.166-.392.166-.613 0-.684-.599-1.087-1.287-1.246a10.344 10.344 0 0 0-1.964-.26c.136-.167.346-.274.555-.379.464-.236.915-.466.97-1.126-.858.104-.426.065-1.272.57-.408.21-.825.422-.982.938ZM.797 0h1.288l.03.654c.161 2.092 2.496 2.268 3.157 3.451.66-1.183 2.995-1.362 3.156-3.45L8.458 0h1.288c.439 0 .797.347.797.77v12.456a.786.786 0 0 1-.797.771H8.462l.04-.828c-1.597-.803-4.861-.803-6.458 0l.04.828H.798a.784.784 0 0 1-.797-.77V.77C0 .347.358 0 .797 0Zm6.92 0C7.264 1.246 6.65 1.876 6.11 2.22 7.137 1.652 7.659 1.004 7.795 0h-.078ZM4.852 11.108a9.813 9.813 0 0 0-1.847.257c-.689.164-1.288.562-1.288 1.246 0 .22.062.43.167.612l-.006-.143.092-.045c.084-.042.173-.078.26-.114.222-.09.454-.164.685-.227 1.36-.37 3.36-.37 4.72 0 .23.063.462.14.685.227.086.033.176.072.26.114l.092.045-.006.143c.105-.182.166-.391.166-.612 0-.684-.599-1.088-1.287-1.246-.655-.15-1.31-.24-1.965-.26.136-.167.346-.275.556-.38.464-.236.914-.466.97-1.126-.858.105-.426.066-1.272.57-.408.207-.825.42-.982.939Zm38.741-3.056c1.795 0 2.897-1.079 2.897-2.546v-.02c0-1.447-1.068-2.002-2.161-2.182l2.035-1.879V.135h-5.438V1.6h3.162l-1.921 1.87.275 1.09h.735c.988 0 1.575.356 1.575.99v.02c0 .58-.473.944-1.14.944-.815 0-1.39-.335-1.942-.935l-1.214 1.13c.689.788 1.69 1.344 3.137 1.344Zm11.887 0c2.483 0 4.287-1.814 4.287-4.028v-.02C59.767 1.79 57.984 0 55.5 0c-2.482 0-4.286 1.813-4.286 4.024v.021c0 2.217 1.782 4.007 4.265 4.007Zm.021-1.58c-1.426 0-2.436-1.112-2.436-2.448v-.02c0-1.336.988-2.424 2.415-2.424s2.437 1.112 2.437 2.447v.021c0 1.336-.989 2.423-2.416 2.423Zm4.634 1.445h1.803l.735-1.744h3.403l.735 1.744h1.85L65.218.077h-1.634l-3.45 7.84Zm3.174-3.256 1.069-2.525 1.069 2.525h-2.138Zm6.596 3.256h1.773V5.54l.93-.935 2.495 3.313h2.124l-3.425-4.481L77.08.135h-2.137l-3.264 3.402V.135h-1.773v7.782Zm11.139.113C82.78 8.03 84 7.165 84 5.618v-.021c0-1.357-.92-1.924-2.551-2.336-1.39-.344-1.736-.511-1.736-1.022v-.024c0-.38.356-.678 1.035-.678.68 0 1.38.29 2.09.767l.921-1.29c-.816-.634-1.816-.99-2.99-.99-1.642 0-2.816.936-2.816 2.346v.021c0 1.545 1.047 1.98 2.668 2.381 1.347.335 1.622.556 1.622.99v.02c0 .457-.436.735-1.162.735-.92 0-1.677-.367-2.402-.944l-1.047 1.213c.964.833 2.196 1.246 3.412 1.246ZM42.222 14c.615 0 1.09-.233 1.436-.517v-1.41h-1.46v.618h.744v.464a1.196 1.196 0 0 1-.695.194c-.596 0-1.016-.436-1.016-1.031v-.009c0-.553.426-1.013.964-1.013.389 0 .62.12.877.329l.466-.544c-.349-.287-.717-.445-1.319-.445-1.016 0-1.76.756-1.76 1.682v.009c-.003.962.717 1.673 1.763 1.673Zm6.468-.057h.753l.306-.729h1.42l.306.73h.772l-1.439-3.275h-.682l-1.436 3.274Zm1.325-1.359.447-1.055.448 1.055h-.895Zm7.368 1.359h.722v-2.109l.936 1.377h.022l.945-1.389v2.121h.735v-3.25h-.797l-.883 1.374-.883-1.374h-.797v3.25Z" clip-rule="evenodd"/><path fill="#fff" d="M66.932 10.693h-.739v3.25h.739v-3.25Z"/><path fill="#fff" fill-rule="evenodd" d="M72.382 13.943h.732v-2.067l1.627 2.067h.627v-3.25h-.729v2.002l-1.575-2.002h-.682v3.25ZM82.403 14c.615 0 1.09-.233 1.436-.517v-1.41h-1.46v.618h.744v.464a1.197 1.197 0 0 1-.695.194c-.596 0-1.02-.436-1.02-1.031v-.009c0-.553.427-1.013.965-1.013.389 0 .62.12.876.329l.467-.544c-.35-.287-.717-.445-1.319-.445-1.016 0-1.76.756-1.76 1.682v.009c0 .962.722 1.673 1.766 1.673Z" clip-rule="evenodd"/></svg>