<svg xmlns="http://www.w3.org/2000/svg" width="68" height="19" fill="none" viewBox="0 0 68 19"><path fill="#fff" d="M16.221 15.692a.79.79 0 0 0-.687.35c-.162.232-.243.558-.243.974 0 .866.31 1.3.93 1.3.26 0 .576-.07.946-.206v.691a2.522 2.522 0 0 1-1.02.199c-.538 0-.95-.171-1.236-.515-.286-.342-.429-.835-.429-1.476 0-.404.07-.759.21-1.062a1.57 1.57 0 0 1 .606-.7c.262-.161.57-.243.923-.243.36 0 .721.091 1.085.275l-.254.67a4.147 4.147 0 0 0-.418-.181 1.232 1.232 0 0 0-.413-.076Zm10.811 3.255V15.06h.786v3.886h-.786Zm12.235 0h-.787v-3.2h-1.005v-.686h2.797v.686h-1.005v3.2Zm11.81-2.284.773-1.6h.846l-1.228 2.373v1.512h-.78v-1.485l-1.23-2.4h.851l.768 1.6ZM52.878 4.74h-.865c-.159 0-.177 0-.194-.172a3.436 3.436 0 0 0-.264-1.042c-.343-.777-.931-1.203-1.731-1.3a2.922 2.922 0 0 0-1.33.127c-.623.217-1.056.648-1.325 1.269a3.4 3.4 0 0 0-.236.92c-.005.034-.007.068-.009.1-.004.06-.032.092-.09.094l-.12.002h-1.682c-.04 0-.08 0-.12-.002-.056-.002-.085-.034-.094-.092-.018-.115-.033-.232-.058-.347a3.27 3.27 0 0 0-.445-1.108c-.404-.617-.968-.938-1.677-.977a2.976 2.976 0 0 0-.907.073c-.766.195-1.286.687-1.586 1.443a3.01 3.01 0 0 0-.202.826c-.018.182-.021.184-.21.184h-1.778c-.103-.005-.124-.025-.114-.141.01-.126.028-.25.048-.374.135-.812.392-1.576.829-2.265C39.363.94 40.268.328 41.41.1c.355-.07.713-.103 1.075-.1.89.008 1.68.307 2.373.89.32.27.598.583.85.922.045.06.089.12.134.178.03.04.066.043.099.003.052-.064.103-.129.153-.194.263-.34.555-.651.886-.92a3.833 3.833 0 0 1 2.382-.878 4.608 4.608 0 0 1 1.633.245c.889.308 1.568.896 2.069 1.714.404.66.646 1.385.782 2.152.027.148.044.299.06.448.019.175.017.176-.162.178h-.505l-.36.001Zm-41.15.6c.305 0 .608-.003.913 0 .11.001.129.02.13.13.003.176-.005.353.001.53.015.4.07.766.21 1.128.252.65.65 1.172 1.242 1.519.362.212.753.333 1.163.375.488.05.976.038 1.457-.086 1.127-.29 1.84-1.033 2.187-2.183.07-.233.089-.437.098-.72-.007-.192-.002-.386.001-.58.001-.086.022-.11.095-.11.633-.003 1.266-.003 1.898 0 .073 0 .092.023.094.112.017.648.003 1.293-.164 1.925-.188.712-.467 1.376-.898 1.964-.57.777-1.31 1.3-2.195 1.601a5.945 5.945 0 0 1-1.772.304 6.498 6.498 0 0 1-1.859-.193c-1.528-.405-2.588-1.382-3.213-2.89a5.824 5.824 0 0 1-.43-1.724c-.03-.334-.01-.672-.011-1.008 0-.061.035-.092.09-.093l.431-.003.532.001Zm7.428-.61c-.042-.066-.047-.133-.06-.199-.198-1.01-.757-1.702-1.675-2.072a3.475 3.475 0 0 0-1.15-.243c-.522-.025-1.04 0-1.547.154-.663.202-1.203.58-1.573 1.203a2.928 2.928 0 0 0-.366 1.032c-.02.126-.027.134-.13.134-.618.002-1.234.002-1.851 0-.111 0-.133-.026-.116-.134.023-.157.049-.314.082-.47a5.666 5.666 0 0 1 .89-2.104A4.527 4.527 0 0 1 14.104.258c.486-.15.985-.225 1.49-.249a6.5 6.5 0 0 1 2.026.2c.881.238 1.65.682 2.274 1.386.522.589.876 1.28 1.108 2.041.076.249.134.501.176.759.013.074.021.15.026.224.006.094-.015.12-.109.12-.256.003-.512.002-.769.002h-1.01c-.054-.002-.11-.008-.16-.012ZM2.25.053c.576 0 1.153.01 1.73-.003.388-.008.765.05 1.137.157.678.195 1.31.494 1.867.95.799.656 1.279 1.513 1.465 2.553.041.231.057.467.083.7.006.059.007.118.007.176 0 .135-.012.148-.132.153H6.654c-.04 0-.08 0-.12-.002-.056-.002-.09-.033-.09-.093 0-.17-.021-.335-.05-.501a2.498 2.498 0 0 0-.418-1.034c-.34-.477-.808-.727-1.352-.842a2.78 2.78 0 0 0-.572-.06l-1.754-.001c-.04 0-.08.001-.12.005-.047.004-.07.036-.072.083a4.804 4.804 0 0 0-.004.202v2.016c0 .228 0 .227-.208.226L.212 4.737c-.048 0-.096-.002-.143-.007a.066.066 0 0 1-.061-.065A2.113 2.113 0 0 1 0 4.49V.307C0 .033-.008.053.255.053H2.25ZM26.824 11.25H23.89c-.072 0-.144 0-.216-.003-.046 0-.076-.026-.079-.075a2.727 2.727 0 0 1-.004-.176v-5.37c0-.312-.026-.286.27-.287h1.563c.056 0 .112 0 .168.004.044.002.076.025.078.075.004.084.006.168.006.251l.001 3.076c0 .321-.03.301.283.301h3.87c.297 0 .272-.023.272.285v1.64c0 .067 0 .134-.004.2-.003.049-.032.074-.079.076a7.786 7.786 0 0 1-.216.003h-2.98ZM64.503.001h3.198c.072 0 .145.001.216.004.046.002.075.029.079.076.004.05.004.101.004.152v1.74c0 .05.001.1-.004.151-.004.047-.03.077-.077.08a4.16 4.16 0 0 1-.192.003l-1.923.001c-.212 0-.213.002-.214.22v1.993c0 .068.001.135-.002.202-.003.096-.02.114-.117.115a162.21 162.21 0 0 1-1.875-.001c-.058 0-.09-.03-.095-.09a4.511 4.511 0 0 1-.005-.226V2.555l-.001-.177c-.005-.159-.012-.17-.167-.17-.657-.002-1.315.001-1.971-.002-.399-.002-.345.053-.347-.358-.002-.522 0-1.042 0-1.564 0-.067 0-.135.004-.202.003-.047.03-.076.076-.078.072-.003.145-.004.217-.004l3.196.001ZM56.5 8.3V5.553c0-.22-.016-.222.21-.222h1.682c.04 0 .08 0 .12.003.058.005.084.04.085.1.001.05.003.1.003.151v5.469c-.003.193-.003.195-.188.195h-1.73l-.071-.001c-.09-.006-.104-.022-.108-.126-.002-.067 0-.134 0-.202-.003-.872-.003-1.746-.002-2.62-.001 0 0 0 0 0Zm-4.666-.017V5.56c0-.236-.02-.23.226-.229h1.633c.056 0 .113.002.168.007.035.003.06.029.063.064.005.076.007.15.007.227l.001 4.31v1.083c0 .042.001.085-.002.126-.005.077-.026.096-.108.101-.032.002-.064.001-.096.001h-1.682c-.048 0-.096-.002-.143-.006a.064.064 0 0 1-.062-.064 4.48 4.48 0 0 1-.005-.227v-2.67Zm-4.911.017v2.696c0 .264.013.255-.229.255h-1.658c-.048 0-.096-.001-.143-.006-.035-.004-.058-.028-.062-.064-.005-.05-.007-.1-.007-.15l.001-5.445c0-.251-.017-.255.23-.255l1.658.001c.048 0 .096.001.144.006.035.003.06.028.061.064.004.076.005.152.005.227V8.3Zm-14.083.001V5.655c0-.042 0-.084.002-.126.004-.192.004-.195.189-.196.576-.002 1.153 0 1.73 0 .032 0 .064.001.096.004.058.005.083.04.084.1l.002.126.001 5.47v.074c-.005.128-.016.143-.142.143-.609.002-1.218 0-1.826 0h-.024c-.088-.006-.105-.023-.107-.126-.003-.067-.001-.134-.001-.202-.003-.873-.003-1.747-.003-2.62ZM2.085 11.136c-.05.039-.108.032-.164.032H.19c-.032 0-.064 0-.096-.003-.054-.004-.091-.03-.092-.092L0 10.896v-5.22c0-.075 0-.15.002-.226.004-.094.022-.111.118-.117.04-.002.08-.002.12-.002h1.61c.056 0 .113.002.168.006.046.003.075.028.077.078.003.067.004.135.004.202v5.296c.002.075.014.15-.014.223Zm6.459-2.803v2.594l-.001.176c-.004.13-.015.143-.142.144-.608.002-1.216 0-1.825 0a.435.435 0 0 1-.071-.007c-.037-.006-.056-.033-.058-.068a2.72 2.72 0 0 1-.006-.177V5.632c.003-.22.003-.222.214-.222h1.68l.096.001c.087.005.105.025.11.127.003.075.002.151.002.227v2.57Zm29.288-.036V5.65c0-.076.002-.152.004-.227.002-.048.027-.077.073-.081.04-.003.08-.005.12-.005h1.682c.032 0 .064-.001.096.002.08.005.101.024.106.102.004.058.004.118.004.176v5.396c0 .05 0 .101-.003.152-.004.046-.028.077-.075.08a1.543 1.543 0 0 1-.097.004h-1.778c-.115-.005-.128-.016-.132-.127-.003-.067-.001-.135-.001-.202V8.297Zm27.756.025v2.673c0 .267.012.254-.228.254h-1.634c-.048 0-.096-.002-.145-.004-.047-.003-.072-.034-.075-.08-.004-.059-.004-.118-.004-.177l.001-5.345c0-.343-.031-.304.301-.305.505-.002 1.01-.001 1.515 0 .064 0 .128 0 .192.005.046.003.07.033.073.08.003.076.004.152.004.228v2.67Zm-6.991-5.943V4.42c0 .059.002.118-.001.177-.005.124-.018.141-.144.141h-1.826c-.109 0-.124-.019-.129-.131-.002-.05 0-.101 0-.152V.296c0-.058-.002-.118.001-.176.005-.097.02-.11.118-.117h.024c.608 0 1.218-.002 1.827 0 .11 0 .124.017.129.132.003.058 0 .118 0 .176v2.068ZM32.84 2.372c0-.714.002-1.429 0-2.143 0-.228.002-.226.21-.226h1.684c.048 0 .096.002.143.008.035.004.058.029.06.066.004.059.006.118.006.176V4.49c0 .258.01.252-.234.25h-1.635c-.056 0-.112-.003-.168-.007-.037-.003-.058-.03-.06-.066a3.572 3.572 0 0 1-.005-.201V2.372Zm-7.163-.002v2.143c0 .223-.002.225-.207.226h-1.682c-.04 0-.08-.002-.12-.005-.048-.003-.071-.036-.073-.083-.004-.067-.003-.134-.003-.202V.29c0-.315-.024-.289.267-.29h1.586c.049 0 .097.001.145.003.06.002.084.04.085.097.002.068.002.135.002.202V2.37Z"/></svg>