<svg xmlns="http://www.w3.org/2000/svg" width="96" height="14" fill="none" viewBox="0 0 96 14"><path fill="#fff" d="M24.983 3.497h3.01v8.075h-1.868v-6.44h-.052c-.182.83-.337 1.41-.415 1.711l-1.427 4.73H22.83l-1.427-4.73a3.325 3.325 0 0 1-.182-.629c-.078-.277-.13-.528-.181-.755l-.078-.327h-.052v6.465h-1.816v-8.1h3.01l1.037 3.748c.026.151.078.353.156.655.078.301.13.553.181.754l.078.327h.052c.182-.83.285-1.408.39-1.71l.985-3.774Zm7.525 1.937c.986 0 1.79.277 2.361.83.57.554.856 1.334.856 2.315 0 .98-.285 1.736-.856 2.314-.57.553-1.349.855-2.36.855-1.013 0-1.791-.276-2.362-.855-.57-.578-.856-1.333-.856-2.314 0-.981.285-1.736.856-2.315.571-.553 1.35-.83 2.361-.83Zm0 4.981c.415 0 .753-.15.986-.453.234-.302.363-.754.363-1.358 0-.604-.13-1.057-.363-1.358-.233-.302-.57-.453-.986-.453-.415 0-.752.15-.986.453-.233.301-.337.754-.337 1.358 0 .604.104 1.056.337 1.358.234.302.545.453.986.453Zm6.125-4.83v.805h.052c.467-.629 1.115-.956 1.946-.956.648 0 1.167.176 1.556.554.39.377.597.93.597 1.66v3.95h-1.842V8.075c0-.428-.078-.73-.26-.931-.181-.176-.44-.277-.778-.277-.337 0-.623.126-.83.378-.234.251-.337.603-.337 1.081v3.245h-1.843V5.585h1.739Zm11.493 4.15a1.706 1.706 0 0 1-.208.705c-.104.226-.285.428-.519.629-.233.2-.545.352-.934.478-.389.125-.83.176-1.349.176-.986 0-1.764-.277-2.335-.856-.57-.553-.856-1.333-.856-2.289 0-.98.285-1.76.83-2.314.545-.553 1.323-.855 2.31-.855.96 0 1.712.276 2.282.83.571.553.83 1.333.83 2.364v.353H45.82c0 .503.103.88.337 1.157.233.277.57.402.986.402.337 0 .623-.075.778-.226a.962.962 0 0 0 .338-.554h1.868Zm-2.154-2.742a1.211 1.211 0 0 0-.882-.352c-.363 0-.649.126-.882.352-.234.227-.337.529-.363.88h2.465c0-.351-.104-.653-.338-.88Zm6.256 3.321c.233 0 .44-.025.597-.076v1.359c-.286.1-.7.15-1.168.15-.674 0-1.167-.125-1.453-.351-.285-.227-.44-.655-.44-1.258V6.767h-.935V5.61h.934V3.95h1.842v1.66h1.246v1.157h-1.246v2.968c0 .227.052.378.13.453.104.075.285.126.493.126Zm1.736-5.886V3.02h1.842v1.408h-1.842Zm0 7.17V5.585h1.842v6.013h-1.842Zm9.266-.001h-2.102L62.012 9.76l-1.168 1.837h-2.05l2.077-3.019-1.92-2.968H61l1.037 1.71 1.038-1.71h1.997l-1.945 2.918 2.101 3.069Zm9.494.001-1.4-5.006c-.209-.754-.39-1.685-.39-1.685h-.052s-.182.93-.39 1.685l-1.374 4.981h-1.09l-2.231-8.1h1.09l1.297 5.082c.181.754.363 1.71.363 1.71h.052s.181-.93.39-1.685l1.374-5.107h1.012L74.75 8.58c.208.754.39 1.685.39 1.685h.051s.182-.93.363-1.685l1.323-5.107h1.116l-2.257 8.125h-1.012Zm8.147-.73c.104 0 .234-.025.312-.05v.78c-.078.025-.338.05-.571.05-.623 0-.96-.252-1.012-.805h-.052c-.44.679-1.349.88-2.05.88-1.09 0-1.945-.679-1.945-1.786 0-1.283.908-1.71 1.946-1.861l1.193-.176c.545-.076.882-.277.882-.78 0-.529-.467-.88-1.297-.88-.804 0-1.453.301-1.505 1.106h-.96c0-1.283 1.064-1.912 2.465-1.912 1.427 0 2.283.63 2.283 1.686v3.37c0 .303.13.378.311.378Zm-1.297-2.465c-.13.15-.57.226-.96.302l-.83.125c-.57.1-1.245.327-1.245 1.132 0 .654.44 1.007 1.115 1.007.779 0 1.92-.403 1.92-1.761v-.805Zm2.36-5.636h.882v8.83h-.882v-8.83Zm1.841 0h.882v8.83h-.882v-8.83Zm6.851 7.069c-.052.78-.674 1.887-2.387 1.887-1.634 0-2.698-1.233-2.698-3.12 0-1.886 1.038-3.119 2.569-3.119 1.504 0 2.594 1.157 2.594 3.12v.2h-4.229c0 1.258.675 2.139 1.764 2.139 1.064 0 1.375-.68 1.453-1.107h.934ZM88.501 8.05h3.295c-.052-.906-.649-1.786-1.66-1.786-.986 0-1.583.88-1.635 1.786Zm7.495 2.742v.805c-.155.075-.518.126-.882.126-1.038 0-1.479-.352-1.479-1.384v-4h-1.037V5.61h1.037V3.9h.986v1.71h1.194v.73H94.62v3.899c0 .478.156.654.675.654.26.025.57-.05.7-.101Z"/><path fill="#fff" fill-rule="evenodd" d="M8.798 13.76a7.426 7.426 0 0 1-1.611.176C3.217 13.936 0 10.816 0 6.968S3.218 0 7.187 0c3.969 0 7.186 3.12 7.186 6.968 0 2.894-1.82 5.376-4.41 6.43-2.528-1.212-4.229-3.62-4.229-6.428 0-2.792 1.739-5.232 4.255-6.415A5.734 5.734 0 0 0 8.874.203C5.89 1.21 3.763 3.876 3.763 6.995c0 3.093 2.09 5.716 5.035 6.765Z" clip-rule="evenodd"/></svg>