<svg xmlns="http://www.w3.org/2000/svg" width="66" height="15" fill="none" viewBox="0 0 66 15"><path fill="#fff" fill-rule="evenodd" d="M5.615 3.15 3.577 9.252h4.075L5.615 3.149Zm5.275 10.223c.092.226.198.422.33.605.133.183.292.324.49.436.199.099.41.155.675.155v.394H7.78v-.394c.265 0 .688-.056.834-.169a.867.867 0 0 0 .291-.436c.053-.169.053-.38.026-.604a2.875 2.875 0 0 0-.172-.704l-.82-2.503h-4.71s-.9 2.925-.94 3.178c-.053.253-.04.464.013.647a.69.69 0 0 0 .37.436c.2.099.45.155.834.155v.394H0v-.408c.278-.07.423-.113.543-.183.105-.056.185-.113.29-.225.371-.394.636-1.069.847-1.702L5.875 0h.37l4.38 12.656.083.232c.06.168.118.33.182.485Zm6.326-9.789 3.202 8.677L23.5 3.584h2.752v.324c-1.006.084-1.178.31-1.204 1.547v7.636c.026 1.237.212 1.476 1.204 1.547v.323h-3.877v-.324c1.085-.084 1.244-.267 1.257-1.73v-7.79l-3.546 9.844h-.198l-3.48-9.45v6.919c.026 1.758.225 2.123 1.296 2.194v.323H14.45v-.323c1.125-.085 1.31-.366 1.337-2.194V5.455c-.027-1.294-.172-1.477-1.31-1.547v-.324h2.739ZM31.18 10.65l1.561-4.64 1.549 4.64h-3.11Zm5.811 3.592a2.548 2.548 0 0 1-.251-.464 11.967 11.967 0 0 1-.199-.549l-3.334-9.76h-.265l-3.188 9.605c-.16.479-.358.999-.636 1.294a1.12 1.12 0 0 1-.15.133l-.061.05c-.093.056-.199.084-.41.14V15h2.66v-.31c-.292 0-.49-.042-.636-.126-.146-.084-.238-.183-.278-.323a1.012 1.012 0 0 1-.013-.493c.026-.196.714-2.418.714-2.418h3.56l.622 1.898c.066.183.105.366.132.534.026.17.013.324-.026.464a.596.596 0 0 1-.226.324c-.105.084-.436.127-.635.127v.309h3.494v-.296a.93.93 0 0 1-.503-.126 1.035 1.035 0 0 1-.37-.323ZM39.42 3.5v.014h7.78l.08 2.939h-.331c-.305-1.898-.596-2.194-2.197-2.222h-.74v8.817c.013 1.266.198 1.491 1.322 1.561v.324h-4.022v-.324c1.164-.084 1.283-.253 1.297-1.743V4.218h-.741c-1.588.042-1.88.338-2.197 2.222h-.33l.079-2.94Zm26.327 9.053c-1.032 1.195-1.945 1.687-3.096 1.687a3.024 3.024 0 0 1-2.25-.97c-.767-.816-1.19-2.335-1.19-4.19 0-3.052 1.296-4.993 3.307-4.993.794 0 1.522.352 2.078 1.013.45.534.648 1.012.913 2.095h.317l-.132-3.769h-.291c-.08.352-.304.548-.582.548-.12 0-.331-.056-.543-.14a5.377 5.377 0 0 0-2.024-.422c-1.138 0-2.276.52-3.163 1.448-.979 1.041-1.508 2.588-1.508 4.43 0 3.417 1.852 5.695 4.618 5.695 1.574 0 2.964-.773 3.797-2.123l-.251-.31ZM50.452 3.892h-.013v-.324h4.075v.324c-1.137.056-1.323.267-1.35 1.547v7.608c.027 1.28.226 1.518 1.35 1.546v.324h-4.062v-.324c1.165-.056 1.324-.239 1.337-1.546V5.439c-.014-1.294-.172-1.463-1.337-1.547Z" clip-rule="evenodd"/></svg>