<svg xmlns="http://www.w3.org/2000/svg" width="96" height="17" fill="none" viewBox="0 0 96 17"><path fill="#fff" fill-rule="evenodd" d="M27.27 0h-.788v17h.788V0Zm13.571 0h-.788v17h.788V0ZM54.45 0h-.772v17h.772V0Zm40.8 0h-.788v17h.789V0ZM81.695 0h-.789v17h.789V0Zm-13.65 0h-.788v17h.788V0ZM0 0h13.518v17H0V0Zm7.74 12.003c-.236.252-.588.386-1.058.386H5.123V9.164h1.71c.436 0 .755.134.956.437.185.286.286.705.286 1.243 0 .52-.118.89-.336 1.159ZM5.122 4.595h1.123c.504 0 .873.118 1.124.37.252.252.37.638.37 1.159 0 .487-.118.84-.353 1.092-.235.251-.587.386-1.04.403H5.123V4.595Zm4.88 4.62c-.285-.47-.72-.773-1.325-.907.487-.22.84-.521 1.09-.941.235-.42.353-.907.353-1.445 0-1.024-.335-1.797-.99-2.318-.654-.52-1.56-.773-2.733-.773h-3.32V14.17H6.85c1.158 0 2.03-.286 2.65-.84.62-.571.94-1.394.94-2.47 0-.638-.151-1.175-.437-1.645Zm81.727-.79v4.132c-.268.453-.688.856-1.275 1.226-.57.37-1.325.537-2.23.537-1.175 0-2.147-.352-2.868-1.075-.722-.722-1.09-1.747-1.09-3.074v-3.36c0-1.31.351-2.335 1.04-3.057.687-.722 1.61-1.075 2.75-1.075s2.029.286 2.65.874c.603.588.922 1.394.973 2.452l-.017.051H90.17c-.017-.723-.218-1.26-.553-1.63-.353-.369-.856-.554-1.543-.554-.688 0-1.225.252-1.627.74-.403.503-.604 1.225-.604 2.166v3.377c0 .974.218 1.713.637 2.217.436.504 1.007.755 1.745.755.536 0 .955-.083 1.258-.268a1.8 1.8 0 0 0 .67-.706v-2.57h-1.945V8.424h3.522ZM76.638 2.838h1.56V14.16h-1.56l-4.293-8.416h-.05v8.416h-1.577V2.839h1.577l4.293 8.399.05-.017V2.84Zm-13.168 0V4.4h-1.877v8.2h1.877v1.562h-5.314V12.6h1.877V4.4h-1.877V2.84h5.314ZM42.576 14.16V2.839h2.03l2.649 9.239h.05l2.65-9.24h2.03v11.323h-1.56V9.81l.134-4.352-.05-.017-2.717 8.719h-1.04l-2.717-8.702h-.033l.134 4.351v4.35h-1.56Zm-8.914-9.054-1.425 4.955h2.884l-1.408-4.955h-.05Zm-.721-2.268h1.51l3.455 11.322h-1.594l-.822-2.856h-3.606l-.821 2.856h-1.61L32.94 2.839ZM22.384 13.775c.587-.353 1.006-.773 1.258-1.227V8.433h-3.505v1.142h1.928v2.57c-.134.286-.369.52-.654.706-.302.184-.721.285-1.258.285-.737 0-1.325-.252-1.744-.772-.436-.505-.637-1.244-.637-2.201V6.787c0-.958.184-1.68.587-2.167.402-.505.939-.757 1.626-.757.688 0 1.208.185 1.544.572.352.37.536.907.57 1.612h1.492l.017-.05c-.05-1.042-.369-1.865-.99-2.453-.603-.57-1.492-.873-2.65-.873-1.14 0-2.045.37-2.733 1.092-.688.705-1.04 1.73-1.04 3.04v3.36c0 1.327.37 2.368 1.09 3.074.721.722 1.677 1.092 2.868 1.092.906 0 1.644-.185 2.23-.555Z" clip-rule="evenodd"/></svg>