<svg xmlns="http://www.w3.org/2000/svg" width="66" height="20" fill="none" viewBox="0 0 66 20"><path fill="#fff" fill-rule="evenodd" d="M3.474 17.496H2.51c-.135 0-.21.084-.223.252.016.152.098.228.246.228H3.3v.182c0 .572-.227.962-.68 1.174-.22.101-.437.149-.655.142-.314-.01-.572-.114-.77-.31-.347-.342-.519-.81-.515-1.405.003-.411.107-.774.313-1.09.238-.366.59-.55 1.057-.55.206 0 .391.035.555.1.134.056.292.153.477.293.06.046.127.07.204.076a.296.296 0 0 0 .18-.064.202.202 0 0 0 .081-.165.246.246 0 0 0-.06-.169 1.39 1.39 0 0 0-.603-.377 2.582 2.582 0 0 0-.87-.138 1.94 1.94 0 0 0-.822.185c-.24.115-.44.272-.598.47-.325.403-.485.912-.48 1.529.002.498.149.949.44 1.354.336.472.82.708 1.448.708.514 0 .907-.112 1.177-.336.43-.355.645-.891.645-1.609v-.094c0-.257-.117-.386-.35-.386Zm62.113 0h-.966c-.134 0-.209.084-.222.252.016.152.097.228.246.228h.768v.182c0 .572-.227.962-.68 1.174-.22.101-.438.149-.655.142-.314-.01-.572-.114-.77-.31-.347-.342-.519-.81-.514-1.405.002-.411.107-.774.312-1.09.238-.366.59-.55 1.057-.55.207 0 .391.035.555.1.133.056.292.153.477.293.06.046.127.07.205.076a.296.296 0 0 0 .18-.064.202.202 0 0 0 .08-.165.246.246 0 0 0-.06-.169 1.393 1.393 0 0 0-.603-.377 2.577 2.577 0 0 0-.87-.138c-.3.004-.574.066-.822.185-.24.115-.439.272-.599.47-.323.403-.484.912-.48 1.529.003.498.15.949.44 1.354.337.472.82.708 1.448.708.516 0 .908-.112 1.178-.336.43-.355.646-.891.646-1.609v-.094c0-.257-.118-.386-.351-.386Z" clip-rule="evenodd"/><mask id="a" width="6" height="5" x="25" y="15" maskUnits="userSpaceOnUse" style="mask-type:alpha"><path fill="#fff" fill-rule="evenodd" d="M25.445 15.685h4.694V20h-4.694v-4.315Z" clip-rule="evenodd"/></mask><g mask="url(#a)"><path fill="#fff" fill-rule="evenodd" d="M29.373 15.775a.423.423 0 0 0-.271-.09.432.432 0 0 0-.237.068.344.344 0 0 0-.143.195l-.918 3.08h-.011l-.917-3.058a.367.367 0 0 0-.143-.212.431.431 0 0 0-.508.021.434.434 0 0 0-.14.274l-.628 3.531a.488.488 0 0 1-.012.117c.012.2.094.3.248.3.17 0 .269-.085.295-.254l.506-3.396 1.038 3.396c.043.137.133.206.272.206.13 0 .217-.069.259-.206l1.051-3.395.495 3.372c.022.153.113.229.27.229.173 0 .26-.116.26-.346l-.627-3.578a.407.407 0 0 0-.14-.254Z" clip-rule="evenodd"/></g><path fill="#fff" fill-rule="evenodd" d="M39.78 15.671c-.18 0-.27.092-.27.275v3.695c0 .183.09.276.27.276.17 0 .254-.096.254-.288v-3.683c0-.183-.085-.275-.254-.275Zm12.816.005a.243.243 0 0 0-.188.08.286.286 0 0 0-.07.195v3.033h-.008l-2.257-3.143c-.085-.117-.185-.177-.302-.177-.148 0-.222.092-.222.275v3.718c0 .176.086.265.259.265.177 0 .265-.086.265-.254v-3.055l2.264 3.155a.35.35 0 0 0 .296.165c.156 0 .234-.09.234-.265v-3.717c0-.184-.09-.275-.27-.275ZM13.78 18.57l.827-2.266h.01l.834 2.265h-1.67Zm1.199-2.586a.51.51 0 0 0-.15-.222.355.355 0 0 0-.223-.077.336.336 0 0 0-.216.08.524.524 0 0 0-.153.23l-1.388 3.6-.016.065a1.538 1.538 0 0 0-.02.076c.014.136.097.206.248.206.136 0 .227-.061.271-.181l.286-.757h1.988l.285.756a.277.277 0 0 0 .271.193c.166 0 .248-.069.248-.206a.643.643 0 0 0-.024-.151l-1.407-3.612ZM55.29.003c-.953 0-1.727.75-1.727 1.675 0 .926.774 1.676 1.728 1.676.953 0 1.726-.75 1.726-1.676 0-.925-.773-1.675-1.726-1.675Z" clip-rule="evenodd"/><mask id="b" width="4" height="4" x="62" y="0" maskUnits="userSpaceOnUse" style="mask-type:alpha"><path fill="#fff" fill-rule="evenodd" d="M62.547.005H66v3.35h-3.454V.005Z" clip-rule="evenodd"/></mask><g mask="url(#b)"><path fill="#fff" fill-rule="evenodd" d="M64.274 3.355c.954 0 1.727-.75 1.727-1.675S65.228.005 64.274.005c-.954 0-1.727.75-1.727 1.675s.773 1.675 1.727 1.675Z" clip-rule="evenodd"/></g><path fill="#fff" fill-rule="evenodd" d="M55.29 8.138c-.953 0-1.727.75-1.727 1.675 0 .926.774 1.676 1.728 1.676.953 0 1.726-.75 1.726-1.676 0-.925-.773-1.675-1.726-1.675Z" clip-rule="evenodd"/><mask id="c" width="4" height="4" x="62" y="8" maskUnits="userSpaceOnUse" style="mask-type:alpha"><path fill="#fff" fill-rule="evenodd" d="M62.54 8.173h3.454v3.35H62.54v-3.35Z" clip-rule="evenodd"/></mask><g mask="url(#c)"><path fill="#fff" fill-rule="evenodd" d="M64.267 8.173c-.954 0-1.727.75-1.727 1.675s.773 1.675 1.727 1.675c.954 0 1.727-.75 1.727-1.675s-.773-1.675-1.727-1.675Z" clip-rule="evenodd"/></g><path fill="#fff" fill-rule="evenodd" d="M59.776 4.085c-.954 0-1.727.75-1.727 1.675s.773 1.675 1.727 1.675c.953 0 1.727-.75 1.727-1.675s-.774-1.675-1.727-1.675ZM42.857 6.658 44.62 2.25l1.76 4.407h-3.523Zm7.893 4.548a.182.182 0 0 0-.024-.088L45.91.192l-.005-.004a.267.267 0 0 0-.245-.183h-2.078a.267.267 0 0 0-.244.183l-.005.004-4.816 10.926a.175.175 0 0 0-.024.088c0 .102.085.185.19.185h2.144c.114 0 .212-.07.25-.168l.003-.002.99-2.54h5.102l.99 2.54.004.002a.269.269 0 0 0 .25.168h2.144c.105 0 .19-.083.19-.185ZM23.242 0l-4.691.002V0c-2.59 0-4.69 2.203-4.69 4.92v1.552c0 2.718 2.1 4.918 4.69 4.918l4.691.003a.221.221 0 0 0 .224-.217V9.63a.221.221 0 0 0-.224-.217h-4.25s-.55.012-1.105-.242c-.554-.254-.83-.659-.83-.659s-.186-.232-.288-.642c-.101-.41-.151-.981-.151-.981v-.264h6.624a.221.221 0 0 0 .224-.217V4.863a.221.221 0 0 0-.224-.217h-6.624v-.143s.05-.57.151-.98c.102-.411.287-.643.287-.643s.277-.405.831-.659c.555-.255 1.105-.242 1.105-.242h4.25a.221.221 0 0 0 .224-.217V.217A.221.221 0 0 0 23.242 0ZM35.28 9.41h-3.531s-.457.013-.918-.241a1.934 1.934 0 0 1-.69-.66s-.192-.356-.192-.775V.19l-.003-.002a.221.221 0 0 0-.221-.185H27.71a.22.22 0 0 0-.22.256l-.004 5.49v1.886l.001.056c.03 2.052 1.773 3.696 3.895 3.696l3.897.003c.103 0 .185-.098.185-.218V9.628c0-.12-.082-.217-.185-.217ZM5.96 4.918l-.593.001H2.465V2.06h3.494c1.31 0 1.707.63 1.708 1.406 0 .778-.399 1.453-1.708 1.453Zm4.545 6.191L7.792 6.645h.003l.001-.001c1.397-.287 2.367-1.227 2.367-3.268C10.163.659 8.297.033 5.94.004l-.575.001H.223A.22.22 0 0 0 0 .222v10.952c0 .12.1.218.223.218h2.016a.22.22 0 0 0 .224-.218V6.892h2.861l2.517 4.322h.003a.35.35 0 0 0 .306.178h2.18v-.002l.014.002c.105 0 .19-.083.19-.185a.179.179 0 0 0-.03-.098h.001Z" clip-rule="evenodd"/></svg>