<svg xmlns="http://www.w3.org/2000/svg" width="59" height="39" fill="none" viewBox="0 0 59 39"><path fill="#fff" d="M23.324 19.5a16.121 16.121 0 0 1 6.174-12.7 16.17 16.17 0 0 0-23.692 4.13 16.15 16.15 0 0 0 6.638 23.104 16.174 16.174 0 0 0 17.054-1.829A16.132 16.132 0 0 1 23.324 19.5Z" opacity=".5"/><path fill="#fff" d="M54.11 29.513v-.52h.225v-.108h-.534v.107h.21v.521h.1Zm1.038 0v-.628h-.162l-.188.449-.189-.45h-.162v.63h.117v-.477l.175.409h.122l.175-.409v.476h.112Zm.507-10.013a16.15 16.15 0 0 1-9.101 14.532 16.174 16.174 0 0 1-17.056-1.83 16.157 16.157 0 0 0 6.177-12.704 16.149 16.149 0 0 0-6.177-12.703 16.17 16.17 0 0 1 23.694 4.13 16.15 16.15 0 0 1 2.463 8.571v.005Z"/><path fill="#fff" fill-rule="evenodd" d="M29.497 6.795h-.006l.006.004A16.131 16.131 0 0 0 23.322 19.5a16.121 16.121 0 0 0 6.17 12.701h.005a16.156 16.156 0 0 0 6.176-12.703 16.149 16.149 0 0 0-6.177-12.703Z" clip-rule="evenodd" opacity=".7"/></svg>