<svg xmlns="http://www.w3.org/2000/svg" width="91" height="16" fill="none" viewBox="0 0 91 16"><path fill="#fff" fill-rule="evenodd" d="M.832 0h6.56c3.305 0 6.123 1.957 7.205 4.947a2.167 2.167 0 0 0-.807-.421 2.583 2.583 0 0 0-.736-.104H4.74a.226.226 0 0 0-.224.228v.798c0 .126.1.227.224.227h7.944c.35 0 .608.036.854.11.756.23 1.147.722 1.348 1.168.124.277.186.578.186.88v7.316c0 .47-.374.851-.835.851H7.68c-3.345 0-6.19-2.006-7.243-5.049.217.19.5.356.865.458.233.065.472.098.713.098h8.307a.236.236 0 0 0 .233-.239v-.777a.236.236 0 0 0-.233-.238H2.387c-.35 0-.607-.036-.854-.11C.596 9.86.221 9.17.071 8.667A1.766 1.766 0 0 1 0 8.168V.85C0 .38.373 0 .832 0ZM37.59 6.355c.195 0 .353-.16.353-.357v-.71a.356.356 0 0 0-.352-.358.356.356 0 0 0-.353.358v.71c0 .197.158.357.352.357ZM25.267 9.013c-.698-.243-1.427-.386-2.132-.524l-.003-.001-.156-.03c-.473-.093-.863-.19-1.227-.359a1.21 1.21 0 0 1-.699-.906 1.19 1.19 0 0 1 .358-1.065c.175-.169.405-.288.7-.365a5.323 5.323 0 0 1 2.371-.05c.887.173 1.291.6 1.443 1.526l.003.033.005.047.02.19h.694l-.007-.152c-.043-1.023-.507-1.73-1.378-2.104-.624-.267-1.269-.308-1.873-.313h-.123l-.137.001c-.562.018-1.015.091-1.426.23-1.062.36-1.546 1.23-1.296 2.332.132.579.52.997 1.188 1.28.412.173.846.278 1.271.38.247.058.495.112.744.166.45.097.916.199 1.365.33.28.083.573.189.804.403.347.324.432 1.017.18 1.481-.174.322-.456.544-.864.681-.991.334-2.025.333-3.075-.01-.494-.16-.847-.47-1.048-.922a2.242 2.242 0 0 1-.171-.966l.002-.148h-.703l.003.229v.001c.003.158.005.32.028.484.13.914.65 1.562 1.545 1.921.522.21 1.103.312 1.83.324h.11c.792 0 1.43-.13 1.998-.406.761-.372 1.147-.909 1.182-1.643.03-.661-.152-1.167-.556-1.545-.286-.27-.635-.414-.97-.53Zm8.476 2.56c.233-.403.34-.857.343-1.478a4.923 4.923 0 0 1-.004-.057l-.005-.083v-.013c-.005-.101-.01-.213-.025-.322-.13-.922-.737-1.898-2.052-1.898h-.047c-1.037.019-1.809.603-2.065 1.566a3.291 3.291 0 0 0 .092 2.015c.212.578.622.96 1.218 1.136.317.094.656.124 1.035.09.669-.056 1.176-.38 1.51-.956Zm-1.555-4.518c.661.044 1.186.24 1.607.601.48.412.787.96.911 1.626.163.879.1 1.646-.197 2.347-.358.844-.998 1.36-1.904 1.527a3.392 3.392 0 0 1-1.717-.102 2.259 2.259 0 0 1-1.107-.795v.294c0 .716 0 1.434.003 2.15a.318.318 0 0 1-.004.067l.001.2h-.703V7.184h.703v.845a2.33 2.33 0 0 1 .606-.552c.524-.328 1.115-.466 1.801-.422Zm5.052 5.993h.706V7.12h-.706v5.928Zm6.955-5.697c.74.353 1.122.946 1.134 1.764v.027c.004.7.005 3.826.005 3.826v.145h-.705V9.255c-.004-.577-.217-.983-.652-1.24a1.656 1.656 0 0 0-.677-.22c-.524-.055-.91-.005-1.247.163-.59.29-.925.79-1.024 1.52a1.963 1.963 0 0 0-.016.202v3.433h-.704v-.145s0-3.495-.003-5.096v-.648h.703v.656c.33-.397.782-.644 1.348-.733.725-.113 1.307-.047 1.838.204Zm8.39 3.948c-.334.773-.911 1.194-1.767 1.287-.067.007-.135.01-.194.012h-.013l-.077.004c-.952-.01-1.608-.38-2-1.132-.252-.476-.332-1.036-.246-1.713.06-.474.23-.883.507-1.213.386-.46.906-.697 1.589-.723l.156-.003c.42 0 .763.072 1.068.225.653.325 1.025.872 1.14 1.672.087.612.033 1.13-.162 1.584Zm-.549-3.81c-.441-.243-.94-.337-1.539-.345a2.998 2.998 0 0 0-.505.031c-1.007.153-1.727.684-2.14 1.58-.286.617-.366 1.3-.242 2.086.167 1.078.735 1.825 1.691 2.22a2.97 2.97 0 0 0 1.152.219c.184 0 .373-.014.573-.042 1.134-.163 1.897-.78 2.27-1.834.275-.773.274-1.584-.002-2.411a2.593 2.593 0 0 0-1.258-1.504ZM86.878 11.3c.276-.612.297-1.308.068-2.065-.16-.522-.468-.912-.921-1.159-.258-.142-.553-.22-.959-.252a2.68 2.68 0 0 0-.213-.01c-.87 0-1.55.46-1.886 1.287-.184.452-.242.957-.178 1.543.102.948.696 1.958 2.06 1.958h.02c.95-.01 1.626-.447 2.01-1.302Zm-1.007-4.03a2.43 2.43 0 0 1 1.217.823v-.954h.707v5.992h-.707v-.864a2.087 2.087 0 0 1-.144.174c-.445.49-1.04.767-1.765.823-.11.008-.219.013-.325.013-.478 0-.894-.089-1.26-.27-.698-.34-1.163-.911-1.381-1.695-.241-.854-.21-1.682.093-2.462.375-.965 1.088-1.529 2.121-1.673.511-.07.998-.04 1.444.093Zm4.369-2.171v8.048h.707V5.099h-.707ZM64.112 8.767c.025.183.028.363.028.516l.003 3.592a.399.399 0 0 1-.004.054l.001.22h-.7V9.364c0-.004-.002-.405-.083-.695l-.014-.053c-.139-.411-.404-.656-.815-.751a2.07 2.07 0 0 0-1.202.066c-.602.223-.976.792-.977 1.486l.004 3.73h-.706v-.145s-.002-3.256-.007-3.83c-.002-.358-.087-.647-.262-.885-.221-.301-.545-.448-1.049-.475-.036-.002-.072-.002-.108-.002-.865 0-1.475.57-1.64 1.547-.018.108-.03.222-.033.359v3.431h-.708V7.261h.708v.612c.046-.056.095-.11.149-.16.35-.336.784-.519 1.328-.563.436-.035.785 0 1.097.102.43.145.757.42.975.822a1.86 1.86 0 0 1 1.032-.81c.486-.16.975-.136 1.3-.106.235.022.457.077.662.165.581.248.925.734 1.021 1.444Zm7.398 1.051h-4.32c.146-1.213.949-1.978 2.107-2h.071c.566 0 1 .13 1.357.405.48.372.738.895.785 1.595Zm.78.527c0-.022-.003-.555-.028-.77-.11-.947-.565-1.648-1.35-2.082-.46-.255-.965-.366-1.683-.348-1.23.027-2.22.773-2.58 1.947a3.976 3.976 0 0 0 .073 2.576c.254.703.756 1.197 1.45 1.426a3.78 3.78 0 0 0 1.17.193c.454 0 .904-.089 1.347-.266.676-.269 1.13-.777 1.387-1.547l.065-.192h-.63l-.108.024-.037.09c-.19.46-.518.795-.972.992-.63.272-1.307.29-2.006.058a1.577 1.577 0 0 1-.935-.837c-.152-.312-.236-.663-.264-1.103l-.001-.014h5.103l-.001-.147Zm7.413-1.229v.015c.004.712.005 3.837.005 3.837v.145h-.705V9.255c-.003-.577-.216-.983-.65-1.24a1.668 1.668 0 0 0-.678-.22c-.528-.056-.91-.004-1.247.163-.59.292-.925.79-1.024 1.52a2.777 2.777 0 0 0-.017.203v3.432h-.704l-.002-5.889h.703v.657c.328-.398.78-.644 1.347-.734.723-.113 1.307-.047 1.838.204.742.353 1.122.947 1.134 1.765Z" clip-rule="evenodd"/></svg>