<svg xmlns="http://www.w3.org/2000/svg" width="111" height="20" fill="none" viewBox="0 0 111 20"><path fill="#fff" fill-rule="evenodd" d="m26.811 5.336-2.76-1.639a8.167 8.167 0 0 0-.554.702l3.314 1.97 7.127-4.232a7.857 7.857 0 0 0-.928-.48l-6.199 3.68Zm-3.791-.184 3.785 2.247 7.93-4.707c.244.192.478.397.699.617l-8.63 5.122-4.174-2.478c.116-.274.245-.541.39-.801Zm3.791 4.31-4.48-2.658c-.088.297-.16.599-.216.904l4.696 2.787 9.755-5.79a8.46 8.46 0 0 0-.52-.723l-9.235 5.48Zm-4.813-.791 4.812 2.856L37 5.477a8.487 8.487 0 0 1 .8 4.877c-.333 2.432-1.7 4.583-3.728 5.864a7.83 7.83 0 0 1-3.926 1.199h-.442a7.776 7.776 0 0 1-1.422-.173A7.865 7.865 0 0 1 25.32 15.9a8.112 8.112 0 0 1-2.258-2.55 8.29 8.29 0 0 1-.95-2.645 8.601 8.601 0 0 1-.114-2.034Z" clip-rule="evenodd"/><path fill="#000" d="M57.651 2.777c0-.493-.826-.937-1.738-.937h-.006c-.912 0-1.738.444-1.738.937l.018.122.364 2.103-.365.213-.946.556h.003s-.213.11-.312.178c-.36.252-.436.619-.227.77.051-.298.287-.612.727-.612.318 0 .56.165.755.412.05.062.098.129.142.2.055.091.11.17.165.247h-2.437c.179.362.349.746.349 1.163v5.427c0 1.313 1.004 1.94 2.09 1.94.84 0 .953-.038 1.416.426.461-.465.574-.426 1.415-.426 1.087 0 2.09-.627 2.09-1.94V8.129c0-.417.17-.8.35-1.163h-2.439a3.99 3.99 0 0 0 .164-.246 2.05 2.05 0 0 1 .142-.201c.197-.248.438-.412.755-.412.44 0 .675.313.728.613.209-.152.133-.52-.23-.771-.096-.068-.31-.178-.31-.178h.004l-.947-.556-.364-.213.364-2.103.018-.122Zm-3.123.245 1.28.437V5.48l-.942-.5-.338-1.96Zm.264 4.297c.21.21.416.34.612.413a.805.805 0 0 0 .036.52.772.772 0 0 0 .418.383.799.799 0 0 0 .514.66c-.158.16-.312.311-.375.373l-1.467-.023a.262.262 0 0 1-.115-.108c-.003-.007-.008-.011-.01-.02l.239.04h.015a.095.095 0 0 0 .095-.08.096.096 0 0 0-.08-.11l-.294-.046.327-1.135-.31-.655-.496.528-.03 1.18-.333-.052c-.052-.01-.101.028-.11.08-.008.052.027.1.08.11l.14.022a.775.775 0 0 0-.087.054l-.029.02-.008.035c-.08.331.103.646.3.786l-.006.042c-.008.051.003.1.033.142a.184.184 0 0 0 .154.08.19.19 0 0 0 .182-.148c.074.01.141.01.187.01h.04l1.924.35.033-.021c.153-.108.738-.537.93-.679a.813.813 0 0 0 .182.122.795.795 0 0 0 .18.786h-4.906V8.13c0-.276-.08-.554-.175-.81l2.21-.001Zm2.38 2.606c-.195.144-.696.512-.877.64l-1.75-.316.012-.047c.023-.092.046-.216.048-.363l1.47.024.028-.029c.022-.022.488-.475.726-.735a.91.91 0 0 0 .22.199.86.86 0 0 0 .123.627Zm-2.929-.305a.45.45 0 0 0 .168.178 2.04 2.04 0 0 1-.031.321.662.662 0 0 1-.03.107c-.077 0-.229-.01-.353-.055-.137-.051-.342-.305-.295-.584a.692.692 0 0 1 .326-.114c.1 0 .167.046.215.147Zm-.182-.351.03-1.134.252-.27.16.335-.314 1.088-.128-.02Zm3.095 5.876a6.61 6.61 0 0 0-.264.005l.209-.652c.032-.09-.132-.207-.2-.308.103.065.368.206.496.263-.013.02-.241.692-.241.692Zm.653-.74-.136.713a2.913 2.913 0 0 1-.273.022l.143-.686c.043-.204-.502-.267-.77-.668-.132.149-.38.193-.627.193-.227 0-.453-.037-.591-.064a.642.642 0 0 0-.1-.01c-.08 0-.153.025-.203.11l-.04.067-.742-.176-.184.307c-.026.05-.028.092.014.138l.05.056c-.034.108-.188.272-.188.272l-.11-.138c-.088-.098-.074-.277.018-.444l.294-.5.628.091-.098-.224c-.13-.296.069-.672.09-.89-.007.066-.067.08-.137.08-.063 0-.134-.011-.18-.011-.02 0-.035.002-.044.008l-.17.104-.134-.12c-.016-.022-.022-.076.018-.116l.31-.35-.367-.432.515.26.157-.19c.043.042.024.153.024.153.16.004.61.254.635.838l.001.057.012.019c.032.044.12.157.23.167l.712.07h.003c.078 0 .233-.091.432-.091a.65.65 0 0 1 .357.11s.065-.052.17-.058h.024c.32 0 .451.29.622.53.129.183.3.455.3.455-.063.076-.122.118-.22.118a.495.495 0 0 1-.092-.01c-.342-.062-.39-.77-.586-.825a.106.106 0 0 0-.03-.004c-.064 0-.091.056-.091.056.089.24.037.338.132.524.072.137.2.25.252.304 0 0-.015.106-.03.184Zm-3.817-.676.032.083c-.021.072-.268.174-.268.174l-.053-.117a.39.39 0 0 1 .127-.464l.4-.245.423.09a.378.378 0 0 0 .072.237l-.444-.086-.265.185c-.045.031-.048.09-.024.143Zm3.884 1.35.122-.639.02-.118a.661.661 0 0 0 .236.046.462.462 0 0 0 .366-.182l.094-.11-.076-.12a11.33 11.33 0 0 0-.306-.464 2.443 2.443 0 0 1-.075-.112c-.148-.222-.333-.501-.705-.501h-.033a.542.542 0 0 0-.156.033.836.836 0 0 0-.362-.084 1.11 1.11 0 0 0-.369.072c-.024.008-.046.016-.064.019l-.694-.069c-.009-.002-.038-.018-.072-.06v-.003l.15-.06c-.041-.504-.522-.814-.79-.918a.285.285 0 0 0-.078-.142l-.15-.142-.13.158-.065.08-.971-.4.632.798-.25.38c-.091.097.01.195.01.195l.257.178.267-.1c.01 0 .018.002.027.003-.013.041-.03.201-.04.246l-.465-.092-.487.277a.582.582 0 0 0-.192.7l.054.12.078.167.17-.07.006-.004c-.061.197-.036.384.073.507l.104.131.137.176.151-.164c.045-.044.189-.207.233-.346l.033-.106-.074-.082-.012-.014.083-.138.605.143.136.031.072-.12.04-.065c.007-.014.01-.016.037-.016.022 0 .043.002.066.007.228.043.44.065.626.065.181 0 .29-.007.42-.05 0 0 .324.37.335.385l-.198.617-.01.038c-.376.03-.56.114-.782.337-.322-.322-.55-.355-1.416-.355-1.036 0-1.738-.611-1.738-1.587v-2.386h6.307l.002 2.386c0 .792-.461 1.344-1.189 1.524Zm1.364-7.76c-.097.256-.177.533-.177.81v1.78c-.369-.063-.413-.463-.414-.48l-.007-.082-.08-.008a.56.56 0 0 1-.357-.172c-.181-.182-.181-.48-.181-.48-.002.015-.2.292.03.596a.63.63 0 0 0 .415.237c.042.222.207.536.595.584v.872h-1.091c-.503-.282-.29-.778-.28-.798l.043-.095-.096-.037c-.545-.203-.395-.75-.387-.773l.022-.08-.074-.035c-.45-.21-.389-.775-.383-.799-.139.113-.189.344-.093.57-.052.058-.121.13-.197.209a.614.614 0 0 1-.48-.57V8.5l-.062-.024c-.182-.068-.307-.17-.368-.306a.6.6 0 0 1-.026-.386 1.523 1.523 0 0 0 .318.034h.008c.054 0 .107-.003.16-.01.29-.028.615-.153.954-.491h2.208Zm-1.7-1.8.43.252h.007l.108.063c-.243.068-.43.19-.585.351l-.017.017c-.036.039-.071.08-.105.123l-.02.025a2.003 2.003 0 0 0-.11.157c-.036.054-.07.111-.104.17-.307.532-.797.85-1.233.85-.435 0-.925-.318-1.231-.85a3.51 3.51 0 0 0-.103-.168l-.02-.03a3.285 3.285 0 0 0-.114-.157 2.885 2.885 0 0 0-.102-.119l-.02-.02a1.262 1.262 0 0 0-.585-.349l.11-.063h.004l.431-.252.443-.255 1.183.648.003-.003.003.003 1.183-.648.444.255Zm-.584-.537-.943.5V3.46l1.28-.437-.337 1.96ZM55.91 3.236l-1.402-.557c.12-.284.67-.526 1.402-.527.734.001 1.285.243 1.403.527l-1.403.557Z"/><path fill="#fff" d="M55.925 16.89h-.028a5.712 5.712 0 0 1-1.351-.175l-.355.966c.234.084 1.026.244 1.72.244.693 0 1.486-.161 1.719-.244l-.354-.966a5.677 5.677 0 0 1-1.351.175Zm2.683-.96c-.264.15-.853.376-1.196.481l.288.798c.53-.146.968-.316 1.33-.499l-.598-.2.176-.58Zm-5.396 0 .177.58-.598.2c.361.183.8.353 1.329.499l.288-.798c-.342-.105-.932-.331-1.196-.48Zm11.136-9.522a.66.66 0 0 0 .217.036c.313 0 .615-.204.72-.436 0 0-.574-.036-1.19-.665a.789.789 0 0 0-.582-.265.922.922 0 0 0-.485.147c.745.399.897 1.039 1.32 1.183Zm-17.092.036a.645.645 0 0 0 .216-.036c.425-.144.578-.784 1.322-1.183 0 0-.208-.147-.484-.147a.792.792 0 0 0-.583.265c-.616.63-1.189.665-1.189.665.103.232.406.436.718.436Z"/><path fill="#fff" d="m64.548 9.006.038.001c.78 0 1.045-.84 1.045-.84h-.016a2.818 2.818 0 0 1-2.123-1.083c-.54-.69-.981-1.296-1.855-1.534l-.086-.015-.02-.088c-.023-.134.068-.26.276-.396 1.205-.794.387-1.807.387-1.807s-.344.81-1.115.81h-.057c-.087-.005-.172-.008-.257-.027L60.623 4s.22-.6-.31-1.153a1.597 1.597 0 0 0-1.397-.468c.266.35.458.93.15 1.29-.265.307-.914.322-.914.781 0 .195.18.422.505.626.976.618 1.944 1.438 2.347 2.537.503 1.371-.064 2.28-.873 2.802 0 0 .253.235.621.265.075.007.148.01.217.01.777 0 1.178-.366 1.178-.366s-.066.506-.47.977c-.373.434-.863.69-1.61.7 0 0-.024.35.307.65.211.191.7.253.7.253s-.915.187-1.016 1.547c-.055.736-.242.992-.242.992h.017c2.124 0 2.07-1.832 2.07-1.832a1.034 1.034 0 0 0 .96.71c.191 0 .357-.045.357-.045s-.31-.658-.003-1.579c.256-.764.214-1.33.214-1.33s.287.435.996.44h.007c.59 0 .848-.451.848-.451-1.416-.591-1.276-2.5-1.276-2.5s.184.138.542.151ZM64.122 11c-.575-.286-.94-1.044-1.028-1.318-.095 1.504-.825 2.548-1.678 3.553-.443.52-.598 1.027-.598 1.027s.086-.574.469-1.041c.796-.962 1.552-2.16 1.608-3.544a4.225 4.225 0 0 0-.594-2.396c.216.673.186 1.497-.547 2.265 0 0 1.458-1.757-.58-3.558-.816-.686-1.708-1.109-2.168-1.409 1.66.545 2.47-.055 2.47-.055-.53.462-1.216.454-1.641.388.115.057.235.116.365.185 1.4.765 2.657 2.023 2.872 3.766V8.85c.326 1.71 1.05 2.15 1.05 2.15Zm-13.376 1.904s.489-.062.7-.253c.33-.302.307-.65.307-.65-.747-.01-1.236-.267-1.612-.7-.401-.47-.468-.977-.468-.977s.401.366 1.177.366c.07 0 .143-.003.218-.01.368-.03.622-.265.622-.265-.81-.521-1.377-1.432-.874-2.803.403-1.098 1.37-1.919 2.346-2.537.324-.204.505-.43.505-.626 0-.459-.648-.474-.914-.782-.307-.358-.114-.94.151-1.29 0 0-.088-.018-.23-.018-.28 0-.766.07-1.165.487-.531.552-.311 1.153-.311 1.153l-.142.028c-.085.019-.17.022-.257.027h-.057c-.772 0-1.114-.81-1.114-.81s-.819 1.013.386 1.808c.208.136.298.261.274.396l-.019.088-.087.015c-.872.238-1.315.845-1.855 1.534a2.815 2.815 0 0 1-2.122 1.082h-.015s.264.84 1.044.84h.038c.358-.013.543-.152.543-.152s.138 1.908-1.276 2.5c0 0 .257.45.848.45h.007c.71-.004.996-.439.996-.439s-.042.566.213 1.33c.307.921-.001 1.58-.001 1.58s.165.044.355.044a.85.85 0 0 0 .22-.026c.592-.142.74-.684.74-.684s-.053 1.832 2.07 1.832h.016s-.186-.256-.24-.992c-.102-1.36-1.017-1.546-1.017-1.546Zm-.342.33c-.853-1.004-1.582-2.048-1.678-3.552-.088.273-.45 1.032-1.026 1.318 0 0 .723-.44 1.048-2.15v.013c.216-1.742 1.473-3 2.873-3.766.128-.07.25-.13.364-.185-.425.066-1.111.074-1.642-.388 0 0 .81.6 2.47.055-.46.3-1.351.723-2.167 1.409-2.038 1.801-.58 3.558-.58 3.558-.733-.77-.763-1.592-.547-2.265a4.214 4.214 0 0 0-.593 2.396c.055 1.384.811 2.582 1.606 3.544.384.466.47 1.04.47 1.04s-.156-.506-.598-1.026Zm4.376-1.03a.064.064 0 0 0-.069.06.063.063 0 0 0 .062.069.065.065 0 0 0 .07-.06.068.068 0 0 0-.063-.07Zm1.13-10.741c.74 0 1.331.246 1.658.51 0 0 .097-.588.428-1.108l-.595.068-.312-.666-.599.31L55.91 0l-.579.578-.6-.31-.31.665-.596-.068c.332.52.429 1.108.429 1.108.327-.264.917-.51 1.656-.51Zm-1.516-.296.165.018.072-.152.208-.448.386.201.15.077.12-.118.416-.416.417.416.12.118.149-.077.384-.2.21.447.07.152.166-.018.157-.02a3.85 3.85 0 0 0-.163.449c-.417-.234-.96-.367-1.512-.367-.55 0-1.091.133-1.51.367a3.88 3.88 0 0 0-.163-.448l.158.02Zm1.038 4.985v.346c.118-.145.347-.116.347-.116v.499s-.008.245-.095.351h.496c-.085-.106-.094-.351-.094-.351v-.499s.229-.03.347.116v-.346h-1.001Zm-.212-2.051c.158.126.249.147.252.15l.062.028v-.325l-.582-.246s.006.188.267.393Zm1.383 0c.263-.205.268-.393.268-.393l-.582.246v.325l.061-.028c.004-.003.095-.024.253-.15Z"/><path fill="#fff" d="M57.651 2.777c0-.493-.826-.937-1.738-.937h-.006c-.912 0-1.738.444-1.738.937l.018.122.364 2.103-.365.213-.946.556h.003s-.213.11-.312.178c-.36.252-.436.619-.227.77.051-.298.287-.612.727-.612.318 0 .56.165.755.412.05.062.098.129.142.2.055.091.11.17.165.247h-2.437c.179.362.349.746.349 1.163v5.427c0 1.313 1.004 1.94 2.09 1.94.84 0 .953-.038 1.416.426.461-.465.574-.426 1.415-.426 1.087 0 2.09-.627 2.09-1.94V8.129c0-.417.17-.8.35-1.163h-2.439a3.99 3.99 0 0 0 .164-.246 2.05 2.05 0 0 1 .142-.201c.197-.248.438-.412.755-.412.44 0 .675.313.728.613.209-.152.133-.52-.23-.771-.096-.068-.31-.178-.31-.178h.004l-.947-.556-.364-.213.364-2.103.018-.122Zm-3.123.245 1.28.437V5.48l-.942-.5-.338-1.96Zm.264 4.297c.21.21.416.34.612.413a.805.805 0 0 0 .036.52.772.772 0 0 0 .418.383.799.799 0 0 0 .514.66c-.158.16-.312.311-.375.373l-1.467-.023a.262.262 0 0 1-.115-.108c-.003-.007-.008-.011-.01-.02l.239.04h.015a.095.095 0 0 0 .095-.08.096.096 0 0 0-.08-.11l-.294-.046.327-1.135-.31-.655-.496.528-.03 1.18-.333-.052c-.052-.01-.101.028-.11.08-.008.052.027.1.08.11l.14.022a.775.775 0 0 0-.087.054l-.029.02-.008.035c-.08.331.103.646.3.786l-.006.042c-.008.051.003.1.033.142a.184.184 0 0 0 .154.08.19.19 0 0 0 .182-.148c.074.01.141.01.187.01h.04l1.924.35.033-.021c.153-.108.738-.537.93-.679a.813.813 0 0 0 .182.122.795.795 0 0 0 .18.786h-4.906V8.13c0-.276-.08-.554-.175-.81l2.21-.001Zm2.38 2.606c-.195.144-.696.512-.877.64l-1.75-.316.012-.047c.023-.092.046-.216.048-.363l1.47.024.028-.029c.022-.022.488-.475.726-.735a.91.91 0 0 0 .22.199.86.86 0 0 0 .123.627Zm-2.929-.305a.45.45 0 0 0 .168.178 2.04 2.04 0 0 1-.031.321.662.662 0 0 1-.03.107c-.077 0-.229-.01-.353-.055-.137-.051-.342-.305-.295-.584a.692.692 0 0 1 .326-.114c.1 0 .167.046.215.147Zm-.182-.351.03-1.134.252-.27.16.335-.314 1.088-.128-.02Zm3.095 5.876a6.61 6.61 0 0 0-.264.005l.209-.652c.032-.09-.132-.207-.2-.308.103.065.368.206.496.263-.013.02-.241.692-.241.692Zm.653-.74-.136.713a2.913 2.913 0 0 1-.273.022l.143-.686c.043-.204-.502-.267-.77-.668-.132.149-.38.193-.627.193-.227 0-.453-.037-.591-.064a.642.642 0 0 0-.1-.01c-.08 0-.153.025-.203.11l-.04.067-.742-.176-.184.307c-.026.05-.028.092.014.138l.05.056c-.034.108-.188.272-.188.272l-.11-.138c-.088-.098-.074-.277.018-.444l.294-.5.628.091-.098-.224c-.13-.296.069-.672.09-.89-.007.066-.067.08-.137.08-.063 0-.134-.011-.18-.011-.02 0-.035.002-.044.008l-.17.104-.134-.12c-.016-.022-.022-.076.018-.116l.31-.35-.367-.432.515.26.157-.19c.043.042.024.153.024.153.16.004.61.254.635.838l.001.057.012.019c.032.044.12.157.23.167l.712.07h.003c.078 0 .233-.091.432-.091a.65.65 0 0 1 .357.11s.065-.052.17-.058h.024c.32 0 .451.29.622.53.129.183.3.455.3.455-.063.076-.122.118-.22.118a.495.495 0 0 1-.092-.01c-.342-.062-.39-.77-.586-.825a.106.106 0 0 0-.03-.004c-.064 0-.091.056-.091.056.089.24.037.338.132.524.072.137.2.25.252.304 0 0-.015.106-.03.184Zm-3.817-.676.032.083c-.021.072-.268.174-.268.174l-.053-.117a.39.39 0 0 1 .127-.464l.4-.245.423.09a.378.378 0 0 0 .072.237l-.444-.086-.265.185c-.045.031-.048.09-.024.143Zm3.884 1.35.122-.639.02-.118a.661.661 0 0 0 .236.046.462.462 0 0 0 .366-.182l.094-.11-.076-.12a11.33 11.33 0 0 0-.306-.464 2.443 2.443 0 0 1-.075-.112c-.148-.222-.333-.501-.705-.501h-.033a.542.542 0 0 0-.156.033.836.836 0 0 0-.362-.084 1.11 1.11 0 0 0-.369.072c-.024.008-.046.016-.064.019l-.694-.069c-.009-.002-.038-.018-.072-.06v-.003l.15-.06c-.041-.504-.522-.814-.79-.918a.285.285 0 0 0-.078-.142l-.15-.142-.13.158-.065.08-.971-.4.632.798-.25.38c-.091.097.01.195.01.195l.257.178.267-.1c.01 0 .018.002.027.003-.013.041-.03.201-.04.246l-.465-.092-.487.277a.582.582 0 0 0-.192.7l.054.12.078.167.17-.07.006-.004c-.061.197-.036.384.073.507l.104.131.137.176.151-.164c.045-.044.189-.207.233-.346l.033-.106-.074-.082-.012-.014.083-.138.605.143.136.031.072-.12.04-.065c.007-.014.01-.016.037-.016.022 0 .043.002.066.007.228.043.44.065.626.065.181 0 .29-.007.42-.05 0 0 .324.37.335.385l-.198.617-.01.038c-.376.03-.56.114-.782.337-.322-.322-.55-.355-1.416-.355-1.036 0-1.738-.611-1.738-1.587v-2.386h6.307l.002 2.386c0 .792-.461 1.344-1.189 1.524Zm1.364-7.76c-.097.256-.177.533-.177.81v1.78c-.369-.063-.413-.463-.414-.48l-.007-.082-.08-.008a.56.56 0 0 1-.357-.172c-.181-.182-.181-.48-.181-.48-.002.015-.2.292.03.596a.63.63 0 0 0 .415.237c.042.222.207.536.595.584v.872h-1.091c-.503-.282-.29-.778-.28-.798l.043-.095-.096-.037c-.545-.203-.395-.75-.387-.773l.022-.08-.074-.035c-.45-.21-.389-.775-.383-.799-.139.113-.189.344-.093.57-.052.058-.121.13-.197.209a.614.614 0 0 1-.48-.57V8.5l-.062-.024c-.182-.068-.307-.17-.368-.306a.6.6 0 0 1-.026-.386 1.523 1.523 0 0 0 .318.034h.008c.054 0 .107-.003.16-.01.29-.028.615-.153.954-.491h2.208Zm-1.7-1.8.43.252h.007l.108.063c-.243.068-.43.19-.585.351l-.017.017c-.036.039-.071.08-.105.123l-.02.025a2.003 2.003 0 0 0-.11.157c-.036.054-.07.111-.104.17-.307.532-.797.85-1.233.85-.435 0-.925-.318-1.231-.85a3.51 3.51 0 0 0-.103-.168l-.02-.03a3.285 3.285 0 0 0-.114-.157 2.885 2.885 0 0 0-.102-.119l-.02-.02a1.262 1.262 0 0 0-.585-.349l.11-.063h.004l.431-.252.443-.255 1.183.648.003-.003.003.003 1.183-.648.444.255Zm-.584-.537-.943.5V3.46l1.28-.437-.337 1.96ZM55.91 3.236l-1.402-.557c.12-.284.67-.526 1.402-.527.734.001 1.285.243 1.403.527l-1.403.557Z"/><path fill="#fff" fill-rule="evenodd" d="m76.49 2.355-.623 1.727h8.631l.623-1.727H76.49Zm-.935 2.59-.623 1.727h8.632l.623-1.726h-8.632Zm-.932 2.59L74 9.264h8.631l.623-1.727h-8.631ZM92.35 9.92v.037c.395.147.771.403.969.568.61.512.879 1.19.879 2.068 0 1.447-.754 2.49-1.991 2.82-.377.11-.772.146-1.508.146H86.95V4.979h3.32c.68 0 1.147.036 1.56.146 1.202.33 1.991 1.172 1.991 2.508 0 .714-.251 1.318-.663 1.72-.18.183-.431.403-.808.568Zm-3.319 1.117v2.783h1.436c.43 0 .825-.037 1.112-.311.287-.275.412-.623.412-1.08 0-.348-.09-.678-.269-.915-.305-.385-.682-.477-1.327-.477H89.03Zm-.018-1.83h1.166c.359 0 .538 0 .718-.055.484-.147.79-.585.79-1.19 0-.713-.324-1.025-.79-1.171-.198-.055-.395-.073-.79-.073h-1.094v2.489Zm8.307 6.352V6.754h-2.996V4.979h8.324l-.592 1.775H99.4v8.805h-2.08Zm5.974 0V4.979h6.745l-.591 1.775h-4.091v2.343h1.668c1.346 0 2.046.33 2.53.75.377.33 1.023 1.062 1.023 2.509 0 1.427-.664 2.214-1.22 2.617-.646.457-1.328.586-2.709.586h-3.355Zm2.063-1.776h1.561c.592 0 .951-.146 1.202-.476.125-.164.305-.458.305-1.007 0-.549-.18-.933-.538-1.208-.215-.164-.503-.256-.987-.256h-1.543v2.947ZM.528 12.638l.471.188h.003l1.355.538c.095.039.193-.02.224-.108l.35-.982.44-1.238h4.647l.301.852.001.002.483 1.366a.176.176 0 0 0 .225.108c.041-.015.41-.162.805-.319l1.026-.407c.11-.043.128-.164.101-.237-.093-.264-3.23-9.05-3.364-9.424-.317-.885-.696-1.77-1.904-1.77-1.207 0-1.6.899-1.906 1.77L2.072 7.783c-.8 2.242-1.59 4.454-1.647 4.618a.187.187 0 0 0 .103.237ZM5.68 4.076h.02l1.576 4.826H4.11l1.57-4.826ZM.176 16.928h11.032a.18.18 0 0 1 .175.185v2.052a.179.179 0 0 1-.175.184H.176A.18.18 0 0 1 0 19.165v-2.052a.18.18 0 0 1 .176-.185Z" clip-rule="evenodd"/></svg>