<svg xmlns="http://www.w3.org/2000/svg" width="59" height="16" fill="none" viewBox="0 0 59 16"><path fill="#fff" fill-rule="evenodd" d="M5.38.003C5.9 0 7.445-.141 8.1 2.086c.44 1.5 1.142 3.956 2.106 7.37h.392c1.033-3.6 1.743-6.056 2.13-7.37.66-2.25 2.313-2.083 2.975-2.083h5.1V16h-5.199V6.573h-.348L12.358 16H8.446L5.548 6.566h-.349V16H0V.003h5.38Zm22.89 0v9.434h.414L32.21 1.68C32.894.136 34.352.003 34.352.003h5.032V16h-5.308V6.566h-.415l-3.456 7.757C29.52 15.86 27.993 16 27.993 16h-5.031V.003h5.307Zm29.46 7.602c-.741 2.115-3.066 3.63-5.64 3.63h-5.566V16h-5.048V7.605H57.73ZM52.332.003H41.21c.265 3.561 3.307 6.61 6.456 6.61h10.412c.601-2.96-1.467-6.61-5.747-6.61Z" clip-rule="evenodd"/></svg>