<svg width="168" height="30" viewBox="0 0 168 30" fill="none" xmlns="http://www.w3.org/2000/svg">
    <path fill-rule="evenodd" clip-rule="evenodd" d="M53.7435 7.63137H46.5845V23.5534H41.9092V3.28906H58.4188V23.5534H53.7435V7.63137Z" fill="white"/>
    <path fill-rule="evenodd" clip-rule="evenodd" d="M67.5203 19.8486C69.0106 19.8486 70.1502 18.8065 70.1502 17.0405C70.1502 15.3615 68.9811 14.2324 67.5203 14.2324C66.1178 14.2324 64.8904 15.2745 64.8904 17.0405C64.8904 18.6904 66.03 19.8486 67.5203 19.8486ZM67.5205 10.1797C72.0208 10.1797 74.8258 13.1325 74.8258 17.0405C74.8258 20.9485 72.0208 23.9014 67.5205 23.9014C63.0203 23.9014 60.2153 20.9485 60.2153 17.0405C60.2153 13.1325 63.0203 10.1797 67.5205 10.1797Z" fill="white"/>
    <path fill-rule="evenodd" clip-rule="evenodd" d="M76.3887 10.5273H80.7717V16.5492L84.3368 10.5273H89.8305L85.5642 16.7226L90.4729 23.5548H84.8041L80.7717 17.4751V23.5548H76.3887V10.5273Z" fill="white"/>
    <path fill-rule="evenodd" clip-rule="evenodd" d="M94.3451 15.5933H99.0787C99.0787 14.6959 98.3481 13.7986 96.9456 13.7986C95.4847 13.7986 94.7541 14.4355 94.3451 15.5933ZM102.205 22.4254C100.832 23.4384 98.9619 23.9019 97.0921 23.9019C92.7669 23.9019 89.9619 21.1516 89.9619 17.041C89.9619 13.2487 92.7669 10.1797 97.0921 10.1797C100.482 10.1797 103.462 12.6118 103.462 16.3177C103.462 17.3306 103.374 17.9092 103.199 18.4888H94.4911C94.9 19.733 96.1275 20.2835 97.5589 20.2835C99.0786 20.2835 100.306 19.7913 101.007 19.357L102.205 22.4254Z" fill="white"/>
    <path fill-rule="evenodd" clip-rule="evenodd" d="M109.521 15.3907V19.3565C110.164 19.733 110.631 19.8491 111.567 19.8491C113.466 19.8491 114.372 18.5175 114.372 16.9249C114.372 15.4198 113.466 14.2324 111.801 14.2324C110.953 14.2324 110.252 14.5798 109.521 15.3907ZM105.138 10.5271H109.521V11.5119C110.252 10.7874 111.567 10.1797 113.174 10.1797C116.71 10.1797 119.047 12.9883 119.047 16.8379C119.047 20.8042 116.242 23.9019 111.976 23.9019C111.07 23.9019 110.135 23.7566 109.521 23.4962V29.3441H105.138V10.5271Z" fill="white"/>
    <path fill-rule="evenodd" clip-rule="evenodd" d="M125.753 19.5015H129.084V14.5801H127.126L127.068 15.1014C126.805 17.2726 126.279 18.6907 125.753 19.5015ZM119.47 19.5015H121.165C122.158 18.1985 122.714 15.6222 122.86 13.3354L123.035 10.5273H133.467V19.5015H135.659V26.4493H131.568V23.5543H123.561V26.4493H119.47V19.5015Z" fill="white"/>
    <path fill-rule="evenodd" clip-rule="evenodd" d="M143.607 19.8486C145.097 19.8486 146.237 18.8065 146.237 17.0405C146.237 15.3615 145.068 14.2324 143.607 14.2324C142.204 14.2324 140.977 15.2745 140.977 17.0405C140.977 18.6904 142.117 19.8486 143.607 19.8486ZM143.607 10.1797C148.107 10.1797 150.912 13.1325 150.912 17.0405C150.912 20.9485 148.107 23.9014 143.607 23.9014C139.107 23.9014 136.302 20.9485 136.302 17.0405C136.302 13.1325 139.107 10.1797 143.607 10.1797Z" fill="white"/>
    <path fill-rule="evenodd" clip-rule="evenodd" d="M152.343 10.5273H156.288L160.233 14.9566L163.885 10.5273H167.713V23.5548H163.33V17.1564L160.145 20.7754H160.057L156.726 17.1564V23.5548H152.343V10.5273Z" fill="white"/>
    <path fill-rule="evenodd" clip-rule="evenodd" d="M0.398849 0C0.178406 0 0 0.179434 0 0.4V19.4792C0 25.2566 4.71391 29.9841 10.4752 29.9841C15.7525 29.9841 20.148 26.017 20.8499 20.91C25.9421 20.2062 29.8973 15.7974 29.8973 10.5054C29.8973 4.72751 25.1839 0 19.4226 0H0.398849ZM5.78013 19.4792V5.99692C5.78013 5.88638 5.86933 5.79692 5.97955 5.79692H19.4225C21.8407 5.79692 24.1175 7.69563 24.1175 10.5054C24.1175 12.8931 22.339 15.1671 19.4333 15.1671L15.5422 15.1897C15.3238 15.1907 15.1469 15.3681 15.1454 15.5871L15.1234 19.4895C15.1234 22.4041 12.8559 24.1872 10.4751 24.1872C7.67389 24.1872 5.78013 21.9044 5.78013 19.4792ZM23.0215 26.544C23.0215 28.4524 24.564 30 26.4676 30C28.3705 30 29.9136 28.4524 29.9136 26.544C29.9136 24.635 28.3705 23.0879 26.4676 23.0879C24.564 23.0879 23.0215 24.635 23.0215 26.544Z" fill="url(#paint0_linear_30990_32113)"/>
    <defs>
        <linearGradient id="paint0_linear_30990_32113" x1="14.9569" y1="-15" x2="-15.043" y2="14.9136" gradientUnits="userSpaceOnUse">
            <stop stop-color="#2EFF71"/>
            <stop offset="1" stop-color="#009148"/>
        </linearGradient>
    </defs>
</svg>
