<svg width="30" height="30" viewBox="0 0 30 30" fill="none" xmlns="http://www.w3.org/2000/svg">
    <path fill-rule="evenodd" clip-rule="evenodd"
          d="M0.398849 5.05447e-05C0.178406 5.05447e-05 0 0.179485 0 0.400051V19.4792C0 25.2566 4.71391 29.9841 10.4752 29.9841C15.7525 29.9841 20.148 26.017 20.8499 20.9101C25.9421 20.2062 29.8973 15.7975 29.8973 10.5054C29.8973 4.72756 25.1839 5.05447e-05 19.4226 5.05447e-05H0.398849ZM5.78013 19.4792V5.99697C5.78013 5.88643 5.86933 5.79697 5.97955 5.79697H19.4225C21.8407 5.79697 24.1175 7.69568 24.1175 10.5055C24.1175 12.8931 22.339 15.1671 19.4333 15.1671L15.5422 15.1898C15.3238 15.1908 15.1469 15.3682 15.1454 15.5872L15.1234 19.4895C15.1234 22.4042 12.8559 24.1872 10.4751 24.1872C7.67389 24.1872 5.78013 21.9044 5.78013 19.4792ZM23.0215 26.544C23.0215 28.4525 24.564 30.0001 26.4676 30.0001C28.3705 30.0001 29.9136 28.4525 29.9136 26.544C29.9136 24.635 28.3705 23.088 26.4676 23.088C24.564 23.088 23.0215 24.635 23.0215 26.544Z"
          fill="url(#paint0_linear_0_833)"/>
    <defs>
        <linearGradient id="paint0_linear_0_833" x1="14.9569" y1="-15" x2="-15.043" y2="14.9136"
                        gradientUnits="userSpaceOnUse">
            <stop stop-color="#2EFF71"/>
            <stop offset="1" stop-color="#009148"/>
        </linearGradient>
    </defs>
</svg>
