<svg xmlns="http://www.w3.org/2000/svg" width="26" height="26" viewBox="0 0 26 26">
    <g fill="none" fill-rule="evenodd">
        <path fill="#FFF" fill-opacity="0" d="M0 26h26V0H0z"/>
        <path fill="#FDA34F" d="M18.958 7.722c.242.27.657.293.927.051l2.054-1.837a.657.657 0 0 0-.875-.979L19.01 6.795a.656.656 0 0 0-.052.927M7.042 7.722a.656.656 0 0 1-.927.051L4.06 5.936a.657.657 0 0 1 .875-.979L6.99 6.795a.656.656 0 0 1 .052.927M12.906 4.656A.656.656 0 0 0 13.562 4V1.243a.656.656 0 0 0-1.312 0V4c0 .363.294.656.656.656"/>
        <path fill="#FEF6EF" d="M18.843 9.74a5.171 5.171 0 0 0-.133-.227c-.083-.133-.165-.267-.258-.396a6.282 6.282 0 0 0-.427-.523c-.052-.06-.093-.124-.147-.18A6.256 6.256 0 0 0 15.605 6.9a7.098 7.098 0 0 0-5.397 0 6.248 6.248 0 0 0-2.273 1.514c-.054.056-.095.12-.147.18a6.282 6.282 0 0 0-.427.523c-.093.129-.175.263-.258.396-.046.075-.091.15-.133.227-1.11 1.938-1.257 4.354-.252 6.404.187.38.502.842.866 1.285a9.1 9.1 0 0 0 1.268 1.253c.507.418 1.863 1.595 1.625 2.828l2.429.125 2.43-.125c-.238-1.233 1.118-2.41 1.626-2.828.46-.378.888-.792 1.267-1.253.364-.443.679-.905.866-1.285 1.005-2.05.857-4.466-.252-6.404"/>
        <path stroke="#FDA34F" d="M18.843 9.74a5.171 5.171 0 0 0-.133-.227c-.083-.133-.165-.267-.258-.396a6.282 6.282 0 0 0-.427-.523c-.052-.06-.093-.124-.147-.18A6.256 6.256 0 0 0 15.605 6.9a7.098 7.098 0 0 0-5.397 0 6.248 6.248 0 0 0-2.273 1.514c-.054.056-.095.12-.147.18a6.282 6.282 0 0 0-.427.523c-.093.129-.175.263-.258.396-.046.075-.091.15-.133.227-1.11 1.938-1.257 4.354-.252 6.404.187.38.502.842.866 1.285a9.1 9.1 0 0 0 1.268 1.253c.507.418 1.863 1.595 1.625 2.828l2.429.125 2.43-.125c-.238-1.233 1.118-2.41 1.626-2.828.46-.378.888-.792 1.267-1.253.364-.443.679-.905.866-1.285 1.005-2.05.857-4.466-.252-6.404z"/>
        <path fill="#FEF6EF" d="M13.015 25.314h-.217a2.393 2.393 0 0 1-2.393-2.393v-1.944l.558.113a9.792 9.792 0 0 0 3.9-.002l.545-.111v1.944a2.393 2.393 0 0 1-2.393 2.393"/>
        <path stroke="#FDA34F" d="M13.015 25.314h-.217a2.393 2.393 0 0 1-2.393-2.393v-1.944l.558.113a9.792 9.792 0 0 0 3.9-.002l.545-.111v1.944a2.393 2.393 0 0 1-2.393 2.393z"/>
    </g>
</svg>
