<svg width="26" height="26" viewBox="0 0 26 26" fill="none" xmlns="http://www.w3.org/2000/svg">
<path d="M9 24.191V19H17V24.191C17 24.5627 16.6088 24.8044 16.2764 24.6382L13.2236 23.1118C13.0828 23.0414 12.9172 23.0414 12.7764 23.1118L9.72361 24.6382C9.39116 24.8044 9 24.5627 9 24.191Z" fill="#EAFFEB"/>
<path fill-rule="evenodd" clip-rule="evenodd" d="M10 23.382L12.3292 22.2174C12.7515 22.0062 13.2485 22.0062 13.6708 22.2174L16 23.382V20H10V23.382ZM9 19V24.191C9 24.5627 9.39116 24.8044 9.72361 24.6382L12.7764 23.1118C12.9172 23.0414 13.0828 23.0414 13.2236 23.1118L16.2764 24.6382C16.6088 24.8044 17 24.5627 17 24.191V19H9Z" fill="#2ECB34"/>
<path d="M11.3191 1C11.2151 1.00586 11.1169 1.04688 11.0476 1.12893L10.0828 2.20142L8.19953 2.16039C8.04355 2.15453 7.89912 2.25416 7.84135 2.40068L7.29832 3.74861L5.50744 4.35811C5.35724 4.41086 5.25326 4.55151 5.24748 4.70975L5.18971 6.16317L3.72235 7.35873C3.60103 7.45836 3.54904 7.62245 3.59526 7.77483L4.02853 9.16378L3.05799 10.793C2.97712 10.9278 2.98289 11.1036 3.0811 11.2326L3.95921 12.3871L3.58948 14.2625C3.56059 14.4207 3.62414 14.579 3.75701 14.6669L4.97018 15.4463L5.25903 17.3334C5.28214 17.4917 5.39768 17.6206 5.55366 17.6499L6.9517 17.9605L7.85869 19.6366C7.93379 19.7773 8.08977 19.8535 8.24575 19.8359L9.66689 19.6425L11.0823 20.9025C11.2036 21.008 11.3711 21.0315 11.5098 20.9553L12.7807 20.2813L14.5369 20.9728C14.6813 21.0315 14.8489 20.9904 14.9586 20.8732L15.9234 19.8007L17.8067 19.8418C17.9627 19.8476 18.1071 19.748 18.1649 19.6015L18.7079 18.2535L20.493 17.6382C20.6432 17.5854 20.7472 17.4448 20.753 17.2865L20.8107 15.8331L22.2781 14.6376C22.3994 14.5379 22.4514 14.3738 22.4052 14.2215L21.9719 12.8325L22.9482 11.1974C23.0291 11.0626 23.0175 10.8868 22.9251 10.7579L22.047 9.60333L22.4167 7.72794C22.4456 7.56971 22.3821 7.41147 22.2492 7.32356L21.036 6.54411L20.7472 4.657C20.7241 4.49877 20.6085 4.36983 20.4526 4.34053L19.0545 4.02992L18.1475 2.35379C18.0724 2.21314 17.9165 2.13695 17.7605 2.15453L16.3393 2.34793L14.924 1.09377C14.8546 1.03516 14.768 1 14.6813 1C14.6178 1 14.5542 1.01172 14.4965 1.04688L13.2255 1.72085L11.4693 1.02344C11.4231 1.00586 11.3711 1 11.3191 1Z" fill="#EAFFEB"/>
<path fill-rule="evenodd" clip-rule="evenodd" d="M18.1475 2.35379C18.0724 2.21314 17.9165 2.13695 17.7605 2.15453L16.3393 2.34793L14.924 1.09377C14.8546 1.03516 14.768 1 14.6813 1C14.6178 1 14.5542 1.01172 14.4965 1.04688L13.2255 1.72085L11.4693 1.02344C11.4231 1.00586 11.3711 1 11.3191 1C11.2151 1.00586 11.1169 1.04688 11.0476 1.12893L10.0828 2.20142L8.19953 2.16039C8.04355 2.15453 7.89913 2.25416 7.84135 2.40068L7.29832 3.74861L5.50744 4.35811C5.35724 4.41086 5.25326 4.55151 5.24748 4.70975L5.18971 6.16317L3.72235 7.35873C3.60103 7.45836 3.54904 7.62245 3.59526 7.77483L4.02853 9.16378L3.05799 10.793C2.97712 10.9278 2.98289 11.1036 3.0811 11.2326L3.95921 12.3871L3.58948 14.2625C3.56059 14.4207 3.62414 14.579 3.75701 14.6669L4.97018 15.4463L5.25903 17.3334C5.28214 17.4917 5.39768 17.6206 5.55366 17.6499L6.9517 17.9605L7.85869 19.6366C7.93379 19.7773 8.08977 19.8535 8.24575 19.8359L9.66689 19.6425L11.0823 20.9025C11.2036 21.008 11.3711 21.0315 11.5098 20.9553L12.7807 20.2813L14.5369 20.9728C14.6813 21.0315 14.8489 20.9904 14.9586 20.8732L15.9234 19.8007L17.8067 19.8418C17.9627 19.8476 18.1071 19.748 18.1649 19.6015L18.7079 18.2535L20.493 17.6382C20.6432 17.5854 20.7472 17.4448 20.753 17.2865L20.8107 15.8331L22.2781 14.6376C22.3994 14.5379 22.4514 14.3738 22.4052 14.2215L21.9719 12.8325L22.9482 11.1974C23.0291 11.0626 23.0175 10.8868 22.9251 10.7579L22.047 9.60333L22.4167 7.72794C22.4456 7.56971 22.3821 7.41147 22.2492 7.32356L21.036 6.54411L20.7472 4.657C20.7241 4.49877 20.6085 4.36983 20.4526 4.34053L19.0545 4.02992L18.1475 2.35379ZM21.356 7.93831L20.1158 7.14149L19.8225 5.22492L18.3922 4.90715L17.4702 3.20326L16.0195 3.40067L14.5866 2.13097L13.2858 2.82077L11.5064 2.11414L10.5196 3.21117L8.6097 3.16957L8.05454 4.54757L6.23003 5.16852L6.17101 6.65354L4.67359 7.87359L5.11608 9.29209L4.12587 10.9544L5.02727 12.1395L4.6502 14.0521L5.89039 14.8489L6.18375 16.7655L7.61403 17.0833L8.53604 18.7872L9.98807 18.5896L11.4247 19.8685L12.7188 19.1822L14.5028 19.8847L15.4866 18.791L17.3965 18.8326L17.9508 17.4568L19.7703 16.8295L19.8294 15.3428L21.3269 14.1227L20.8842 12.7036L21.8801 11.0357L20.979 9.85092L21.356 7.93831Z" fill="#2ECB34"/>
<path fill-rule="evenodd" clip-rule="evenodd" d="M13 17C16.3137 17 19 14.3137 19 11C19 7.68629 16.3137 5 13 5C9.68629 5 7 7.68629 7 11C7 14.3137 9.68629 17 13 17ZM13 18C16.866 18 20 14.866 20 11C20 7.13401 16.866 4 13 4C9.13401 4 6 7.13401 6 11C6 14.866 9.13401 18 13 18Z" fill="#2ECB34"/>
<path d="M12.8948 15C12.7804 15 12.6893 14.9042 12.695 14.7899L12.736 13.9757C12.4667 13.9347 12.2061 13.8391 11.954 13.6889C11.7019 13.5386 11.4899 13.3269 11.318 13.0538C11.1709 12.8142 11.0721 12.5222 11.0215 12.1777C11.0066 12.0764 11.0763 11.9834 11.1768 11.9633L11.6456 11.8692C11.7606 11.8461 11.8784 11.9336 11.8938 12.0499V12.0499C11.911 12.1729 11.9568 12.3163 12.0313 12.4802C12.1115 12.6372 12.2347 12.7772 12.4009 12.9001C12.567 13.0162 12.7962 13.0743 13.0884 13.0743C13.4035 13.0743 13.6413 12.9957 13.8017 12.8387C13.9621 12.6816 14.0424 12.5211 14.0424 12.3572C14.0481 12.166 13.9965 12.0124 13.8877 11.8963C13.7788 11.7802 13.6356 11.688 13.4579 11.6197C13.2861 11.5446 13.0941 11.4763 12.8821 11.4149C12.6701 11.3534 12.4582 11.2817 12.2462 11.1997C12.0399 11.1178 11.8508 11.012 11.6789 10.8822C11.5071 10.7525 11.3724 10.5817 11.275 10.37C11.1776 10.1515 11.1375 9.87836 11.1547 9.55058C11.1719 9.13402 11.318 8.79257 11.593 8.52625C11.868 8.25309 12.249 8.0892 12.736 8.03457L12.6949 7.20996C12.6892 7.09573 12.7803 7 12.8947 7H13.3511C13.4654 7 13.5564 7.09561 13.5508 7.20976L13.5095 8.05506C13.7788 8.10969 14.0223 8.21895 14.24 8.38284C14.4577 8.53991 14.6296 8.75502 14.7557 9.02817C14.8625 9.25377 14.924 9.51857 14.9403 9.82257C14.9456 9.9198 14.8746 10.0031 14.7787 10.0196L14.345 10.0942C14.2228 10.1152 14.1128 10.0207 14.0978 9.89761C14.0782 9.73566 14.0368 9.60291 13.9736 9.49936C13.8877 9.3423 13.7759 9.22621 13.6384 9.15109C13.5067 9.07597 13.3749 9.02817 13.2431 9.00768C13.1113 8.9872 13.0082 8.97695 12.9337 8.97695C12.716 8.97695 12.5183 9.035 12.3407 9.15109C12.1631 9.26718 12.0685 9.44132 12.0571 9.6735C12.0571 9.87153 12.1115 10.0286 12.2204 10.1447C12.3292 10.2608 12.4725 10.3564 12.6501 10.4315C12.8334 10.4998 13.0311 10.5647 13.2431 10.6261C13.4551 10.6808 13.6671 10.7456 13.8791 10.8207C14.0911 10.8959 14.283 10.9983 14.4549 11.128C14.6325 11.2578 14.77 11.4285 14.8674 11.6402C14.9705 11.8519 15.0135 12.1251 14.9963 12.4597C14.9734 12.8762 14.8187 13.2143 14.5322 13.4738C14.2515 13.7264 13.9106 13.8869 13.5095 13.9552L13.5507 14.7901C13.5564 14.9043 13.4653 15 13.351 15H12.8948Z" fill="#2ECB34"/>
</svg>
