<svg width="36" height="36" viewBox="0 0 36 36" fill="none" xmlns="http://www.w3.org/2000/svg">
<path fill-rule="evenodd" clip-rule="evenodd" d="M31.374 19.9462C31.7459 19.5743 32.3489 19.5743 32.7209 19.9462C33.0928 20.3181 33.0928 20.9211 32.7209 21.293L27.68 26.3339L32.7209 31.3747C33.0928 31.7467 33.0928 32.3497 32.7209 32.7216C32.3489 33.0935 31.7459 33.0935 31.374 32.7216L26.3332 27.6808L21.2923 32.7216C20.9204 33.0935 20.3174 33.0935 19.9454 32.7216C19.5735 32.3497 19.5735 31.7467 19.9454 31.3747L24.9863 26.3339L19.9454 21.293C19.5735 20.9211 19.5735 20.3181 19.9454 19.9462C20.3174 19.5743 20.9204 19.5743 21.2923 19.9462L26.3332 24.987L31.374 19.9462Z" fill="#9B6EFF"/>
<path d="M3 23.0006C3 21.1596 4.49238 19.6672 6.33333 19.6672H13C14.8409 19.6672 16.3333 21.1596 16.3333 23.0006V29.6672C16.3333 31.5082 14.8409 33.0005 13 33.0005H6.33333C4.49238 33.0005 3 31.5082 3 29.6672V23.0006Z" fill="#EFEBFF"/>
<path fill-rule="evenodd" clip-rule="evenodd" d="M13 21.3339H6.33333C5.41285 21.3339 4.66666 22.0801 4.66666 23.0006V29.6672C4.66666 30.5877 5.41285 31.3339 6.33333 31.3339H13C13.9205 31.3339 14.6666 30.5877 14.6666 29.6672V23.0006C14.6666 22.0801 13.9205 21.3339 13 21.3339ZM6.33333 19.6672C4.49238 19.6672 3 21.1596 3 23.0006V29.6672C3 31.5082 4.49238 33.0005 6.33333 33.0005H13C14.8409 33.0005 16.3333 31.5082 16.3333 29.6672V23.0006C16.3333 21.1596 14.8409 19.6672 13 19.6672H6.33333Z" fill="#9B6EFF"/>
<path d="M19.6665 6.33723C19.6665 4.49629 21.1589 3.00391 22.9998 3.00391H29.6665C31.5074 3.00391 32.9998 4.49629 32.9998 6.33723V13.0039C32.9998 14.8448 31.5074 16.3372 29.6665 16.3372H22.9998C21.1589 16.3372 19.6665 14.8448 19.6665 13.0039V6.33723Z" fill="#EFEBFF"/>
<path fill-rule="evenodd" clip-rule="evenodd" d="M29.6665 4.67057H22.9998C22.0794 4.67057 21.3332 5.41676 21.3332 6.33723V13.0039C21.3332 13.9244 22.0794 14.6705 22.9998 14.6705H29.6665C30.587 14.6705 31.3331 13.9244 31.3331 13.0039V6.33723C31.3331 5.41676 30.587 4.67057 29.6665 4.67057ZM22.9998 3.00391C21.1589 3.00391 19.6665 4.49629 19.6665 6.33723V13.0039C19.6665 14.8448 21.1589 16.3372 22.9998 16.3372H29.6665C31.5074 16.3372 32.9998 14.8448 32.9998 13.0039V6.33723C32.9998 4.49629 31.5074 3.00391 29.6665 3.00391H22.9998Z" fill="#9B6EFF"/>
<path fill-rule="evenodd" clip-rule="evenodd" d="M14.7076 3.27895C15.0795 2.90702 15.6825 2.90702 16.0544 3.27895C16.4264 3.65087 16.4264 4.25389 16.0544 4.62581L11.0136 9.66669L16.0544 14.7075C16.4263 15.0794 16.4263 15.6824 16.0544 16.0544C15.6824 16.4263 15.0794 16.4263 14.7075 16.0544L9.66669 11.0136L4.62588 16.0544C4.25395 16.4263 3.65094 16.4263 3.27901 16.0544C2.90709 15.6824 2.90709 15.0794 3.27901 14.7075L8.31982 9.66669L3.27895 4.62581C2.90702 4.25389 2.90702 3.65087 3.27895 3.27895C3.65087 2.90702 4.25389 2.90702 4.62581 3.27895L9.66669 8.31982L14.7076 3.27895Z" fill="#9B6EFF"/>
</svg>
