<svg width="18" height="17" viewBox="0 0 18 17" fill="none" xmlns="http://www.w3.org/2000/svg">
<path d="M8.10564 0.788015C8.47422 0.0511532 9.52578 0.0511519 9.89436 0.788014L11.7303 4.45845C11.8758 4.74943 12.1538 4.95141 12.4756 4.99992L16.5337 5.61177C17.3484 5.73461 17.6733 6.7347 17.0864 7.31294L14.163 10.1932C13.9312 10.4216 13.825 10.7484 13.8783 11.0694L14.5504 15.1179C14.6854 15.9307 13.8346 16.5488 13.1033 16.1693L9.4606 14.279C9.17182 14.1292 8.82818 14.1292 8.5394 14.279L4.89667 16.1693C4.16537 16.5488 3.31463 15.9307 3.44957 15.1179L4.12169 11.0694C4.17497 10.7484 4.06878 10.4216 3.83702 10.1932L0.913566 7.31294C0.326665 6.7347 0.651616 5.73461 1.46631 5.61177L5.52444 4.99992C5.84615 4.95141 6.12416 4.74943 6.26971 4.45845L8.10564 0.788015Z" fill="white"/>
</svg>
