<svg width="22" height="22" viewBox="0 0 22 22" fill="none" xmlns="http://www.w3.org/2000/svg">
<path fill-rule="evenodd" clip-rule="evenodd" d="M11 1.27418C7.32858 1.27418 4.31182 4.07711 3.97286 7.65982C4.13526 7.74354 4.30745 7.8701 4.45459 8.06514C4.68866 8.37539 4.77647 8.74777 4.77647 9.10134V12.6338C4.77647 13.203 4.5344 13.841 4.0979 14.2199C4.34104 14.9242 4.70774 15.8333 5.44391 16.6794C6.16683 17.5104 7.44522 18.8179 9.27244 19.4686C9.46098 18.6892 10.1631 18.1104 11.0004 18.1104C11.9823 18.1104 12.7782 18.9063 12.7782 19.8881C12.7782 20.87 11.9823 21.6659 11.0004 21.6659C10.2229 21.6659 9.5619 21.1667 9.32053 20.4713C7.16426 19.815 5.61224 18.3227 4.7116 17.2876C3.87758 16.329 3.45527 15.2946 3.19858 14.5553C3.11643 14.554 3.0315 14.5453 2.94388 14.5287C2.39424 14.4242 1.73993 14.1621 1.21303 13.5832C0.662936 12.9789 0.332031 12.1164 0.332031 11.0095C0.332031 10.1532 0.512107 9.32853 0.849877 8.68404C1.17726 8.05937 1.75258 7.44448 2.55425 7.44448L2.61416 7.44441C2.74213 7.44419 2.8914 7.44394 3.04799 7.4517C3.48672 3.44809 6.87957 0.333008 11 0.333008C15.1204 0.333008 18.5132 3.44799 18.952 7.45151C19.1072 7.44394 19.255 7.44419 19.3819 7.44441L19.4418 7.44448C20.2435 7.44448 20.8188 8.05937 21.1462 8.68404C21.484 9.32853 21.6641 10.1532 21.6641 11.0095C21.6641 12.1164 21.3332 12.9789 20.7831 13.5832C20.2562 14.1621 19.6019 14.4242 19.0522 14.5287C17.9064 14.7465 17.2196 13.5925 17.2196 12.6338V9.10134C17.2196 8.74777 17.3074 8.37539 17.5415 8.06514C17.6898 7.86861 17.8635 7.74161 18.027 7.6579C17.6871 4.07611 14.6708 1.27418 11 1.27418Z" fill="white"/>
</svg>
