<svg width="20" height="17" viewBox="0 0 20 17" fill="none" xmlns="http://www.w3.org/2000/svg">
<path fill-rule="evenodd" clip-rule="evenodd" d="M6.45769 8.93681L15.4638 3.52135C15.6255 3.42428 15.7927 3.63762 15.6539 3.76348L8.22111 10.5091C7.9589 10.7469 7.79064 11.0648 7.74256 11.4093L7.49018 13.2408C7.45631 13.4861 7.1045 13.5096 7.03567 13.2728L6.06108 9.93308C5.94964 9.55228 6.11244 9.14481 6.45769 8.93681ZM0.353457 8.15174L4.96196 9.83067L6.74505 15.4307C6.85977 15.7901 7.30882 15.9224 7.60709 15.6845L10.1757 13.6397C10.4445 13.4253 10.828 13.4147 11.1099 13.6141L15.7424 16.8984C16.0615 17.1245 16.5138 16.9539 16.5936 16.5773L19.9882 0.639213C20.0756 0.22748 19.6615 -0.11492 19.2605 0.0365465L0.347994 7.15974C-0.118537 7.33467 -0.11526 7.98001 0.353457 8.15174Z" fill="white"/>
</svg>
